G04*
G04 Format:               Gerber RS-274X*
G04 Layer:                InnerCopperUpper*
G04 This File Name:       LCD Schematic.g2l*
G04 Source File Name:     LCD Schematic.rrb*
G04 Unique ID:            86654cfe-227d-49ae-bb08-cacc58575cec*
G04 Generated Date:       Sunday, 24 August 2025 11:43:49*
G04*
G04 Created Using:        Robot Room Copper Connection v2.7.5443*
G04 Software Contact:     http://www.robotroom.com/CopperConnection/Support.aspx*
G04 License Number:       1685*
G04 Student Edition:      true*
G04*
G04 Zero Suppression:     Leading*
G04 Number Precision:     2.4*
G04*
G04 Polarity:             Positive. Copper dark. Clear space lacks copper.*
G04*
%FSLAX24Y24*%
%MOIN*%
%LNInnerCopperUpper*%
%ADD10C,.056*%
%ADD11C,.065*%
%ADD12C,.075*%
%ADD13C,.08*%
%ADD14C,.089*%
%ADD15C,.099*%
%ADD16C,.16*%
%ADD17R,.006X.006*%
%ADD18R,.065X.065*%
%ADD19R,.075X.075*%
%ADD20R,.099X.099*%
G36*
G01X250Y12750D02*
X20000D01*
Y250D01*
X250D01*
Y12750D01*
G37*
%LPC*%
D13*
X2130Y3460D03*
X14000Y4000D03*
X17000Y3000D03*
X4960Y3480D03*
X15000Y11750D03*
X17500D03*
X7250Y3750D03*
D14*
X12250Y6000D03*
X4250D03*
X13250D03*
X5250D03*
X14250D03*
X6250D03*
X15250D03*
X7250D03*
X16250D03*
X8250D03*
X17250D03*
X9250D03*
X10250D03*
X11250D03*
X7250Y10750D03*
Y11750D03*
X8250Y10750D03*
Y11750D03*
X9250Y10750D03*
Y11750D03*
X10250Y10750D03*
Y11750D03*
X11250Y10750D03*
Y11750D03*
X12250Y10750D03*
Y11750D03*
D15*
X17000Y9750D03*
X18000D03*
D20*
X16000Y9750D03*
X4750Y8750D03*
%LPD*%
D10*
X2130Y3460D03*
X1130D03*
X14000Y4000D03*
X17000Y3000D03*
X19000Y4000D03*
X4960Y3480D03*
X3960D03*
X15000Y11750D03*
X17500D03*
X9750Y3750D03*
X7250D03*
D11*
X12250Y6000D03*
X4250D03*
X13250D03*
X5250D03*
X14250D03*
X6250D03*
X15250D03*
X7250D03*
X16250D03*
X8250D03*
X17250D03*
X9250D03*
X18250D03*
X10250D03*
X11250D03*
X6250Y11750D03*
X7250Y10750D03*
Y11750D03*
X8250Y10750D03*
Y11750D03*
X9250Y10750D03*
Y11750D03*
X10250Y10750D03*
Y11750D03*
X11250Y10750D03*
Y11750D03*
X12250Y10750D03*
Y11750D03*
D12*
X17000Y9750D03*
X18000D03*
X750Y8750D03*
D16*
X1250Y1000D03*
X19250Y11750D03*
Y1000D03*
X1000Y6000D03*
X1250Y11750D03*
D18*
X3250Y6000D03*
X6250Y10750D03*
D19*
X16000Y9750D03*
X4750Y8750D03*
M02*
