G04*
G04 Format:               Gerber RS-274X*
G04 Layer:                TopSilkscreen*
G04 This File Name:       LCD Schematic.gto*
G04 Source File Name:     LCD Schematic.rrb*
G04 Unique ID:            c9e8c498-145c-48ea-bece-c2754c0c7060*
G04 Generated Date:       Saturday, 23 August 2025 16:08:57*
G04*
G04 Created Using:        Robot Room Copper Connection v2.7.5443*
G04 Software Contact:     http://www.robotroom.com/CopperConnection/Support.aspx*
G04 License Number:       1685*
G04 Student Edition:      true*
G04*
G04 Zero Suppression:     Leading*
G04 Number Precision:     2.4*
G04*
%FSLAX24Y24*%
%MOIN*%
%LNTopSilkscreen*%
%ADD10C,.006*%
%ADD11C,.0062*%
%ADD12C,.0071*%
%ADD13C,.0079*%
%ADD14C,.01*%
%ADD15C,.0109*%
%ADD16C,.012*%
%ADD17C,.0235*%
%ADD18C,.0295*%
%ADD19C,.056*%
%ADD20C,.065*%
%ADD21C,.075*%
%ADD22C,.16*%
%ADD23R,.006X.006*%
%ADD24R,.065X.065*%
%ADD25R,.075X.075*%
D10*
G01X1564Y7936D02*
X1627Y8000D01*
Y7617D01*
X1564D02*
X1691D01*
X1882D02*
Y8000D01*
X2137Y7745D01*
Y8000D02*
Y7617D01*
X2520Y7745D02*
X2265D01*
Y7809D01*
X2456Y8000D01*
Y7617D01*
X2648Y7681D02*
Y7936D01*
X2711Y8000D01*
X2839D01*
X2903Y7936D01*
Y7681D01*
X2839Y7617D01*
X2711D01*
X2648Y7681D01*
X2903Y7936D02*
X2648Y7681D01*
X3030D02*
Y7936D01*
X3094Y8000D01*
X3221D01*
X3285Y7936D01*
Y7681D01*
X3221Y7617D01*
X3094D01*
X3030Y7681D01*
X3285Y7936D02*
X3030Y7681D01*
X3476Y7936D02*
X3540Y8000D01*
Y7617D01*
X3476D02*
X3604D01*
X2314Y2686D02*
X2378Y2750D01*
Y2368D01*
X2314D02*
X2441D01*
X2632Y2431D02*
Y2686D01*
X2696Y2750D01*
X2824D01*
X2887Y2686D01*
Y2431D01*
X2824Y2368D01*
X2696D01*
X2632Y2431D01*
X2887Y2686D02*
X2632Y2431D01*
X3270Y2495D02*
X3142Y2368D01*
X3079D01*
X3015Y2431D01*
Y2622D01*
X3270D02*
Y2368D01*
X3525D02*
Y2686D01*
X3589Y2750D01*
X3653Y2686D01*
X3461Y2559D02*
X3589D01*
X3461Y2368D02*
X3589D01*
X6314Y2686D02*
X6377Y2750D01*
Y2368D01*
X6314D02*
X6441D01*
X6633Y2431D02*
Y2686D01*
X6696Y2750D01*
X6824D01*
X6888Y2686D01*
Y2431D01*
X6824Y2368D01*
X6696D01*
X6633Y2431D01*
X6888Y2686D02*
X6633Y2431D01*
X7015D02*
Y2686D01*
X7079Y2750D01*
X7206D01*
X7270Y2686D01*
Y2431D01*
X7206Y2368D01*
X7079D01*
X7015Y2431D01*
X7270Y2686D02*
X7015Y2431D01*
X7397Y2622D02*
Y2368D01*
Y2495D02*
X7525Y2622D01*
X7589D01*
X7652Y2559D01*
Y2368D01*
X7907D02*
Y2686D01*
X7971Y2750D01*
X8035Y2686D01*
X7844Y2559D02*
X7971D01*
X7844Y2368D02*
X7971D01*
X12114Y3434D02*
X12050Y3498D01*
X12432D01*
Y3434D02*
Y3561D01*
X12369Y3752D02*
X12114D01*
X12050Y3816D01*
Y3944D01*
X12114Y4007D01*
X12369D01*
X12432Y3944D01*
Y3816D01*
X12369Y3752D01*
X12114Y4007D02*
X12369Y3752D01*
X12050Y4135D02*
Y4199D01*
X12432D01*
Y4390D02*
X12305Y4262D01*
X12177Y4390D01*
X12305Y4199D02*
Y4262D01*
X8452Y7670D02*
X8197D01*
X8070Y7797D01*
X8197Y7925D01*
X8452D01*
X8325Y7670D02*
Y7925D01*
X8389Y8053D02*
X8134D01*
X8070Y8116D01*
Y8244D01*
X8134Y8308D01*
X8389D01*
X8452Y8244D01*
Y8116D01*
X8389Y8053D01*
X8134Y8308D02*
X8389Y8053D01*
Y8925D02*
X8452Y8861D01*
Y8734D01*
X8389Y8670D01*
X8134D01*
X8070Y8734D01*
Y8861D01*
X8134Y8925D01*
X8452Y9308D02*
Y9053D01*
X8261D01*
X8070D01*
Y9308D01*
X8261Y9053D02*
Y9244D01*
X12070Y8670D02*
Y8861D01*
X12134Y8925D01*
X12389D01*
X12452Y8861D01*
Y8670D01*
X12070Y8734D02*
X12452D01*
X12134Y9053D02*
X12070D01*
Y9308D01*
X12134D01*
X12325Y9116D01*
X12452D01*
X12070Y7670D02*
Y7861D01*
X12134Y7925D01*
X12389D01*
X12452Y7861D01*
Y7670D01*
X12070Y7734D02*
X12452D01*
X12325Y8053D02*
X12261Y8116D01*
Y8244D01*
X12325Y8308D01*
X12389D01*
X12452Y8244D01*
Y8116D01*
X12389Y8053D01*
X12325D01*
X12198D01*
X12070Y8180D01*
Y8244D01*
X11070Y8670D02*
Y8861D01*
X11134Y8925D01*
X11389D01*
X11453Y8861D01*
Y8670D01*
X11070Y8734D02*
X11453D01*
X11198Y9053D02*
X11070D01*
Y9308D01*
X11198Y9053D02*
Y9244D01*
X11261Y9308D01*
X11389D01*
X11453Y9244D01*
Y9116D01*
X11389Y9053D01*
X11070Y7670D02*
Y7861D01*
X11134Y7925D01*
X11389D01*
X11453Y7861D01*
Y7670D01*
X11070Y7734D02*
X11453D01*
X11325Y8308D02*
Y8053D01*
X11261D01*
X11070Y8244D01*
X11453D01*
X10070Y8670D02*
Y8861D01*
X10134Y8925D01*
X10389D01*
X10452Y8861D01*
Y8670D01*
X10070Y8734D02*
X10452D01*
X10134Y9053D02*
X10070Y9116D01*
Y9244D01*
X10134Y9308D01*
X10197D01*
X10261Y9244D01*
Y9180D01*
Y9244D02*
X10325Y9308D01*
X10389D01*
X10452Y9244D01*
Y9116D01*
X10389Y9053D01*
X10070Y7670D02*
Y7861D01*
X10134Y7925D01*
X10389D01*
X10452Y7861D01*
Y7670D01*
X10070Y7734D02*
X10452D01*
X10134Y8053D02*
X10070Y8116D01*
Y8244D01*
X10134Y8308D01*
X10197D01*
X10261Y8244D01*
Y8116D01*
X10325Y8053D01*
X10452D01*
Y8308D01*
X15210Y12596D02*
X15274Y12660D01*
X15401D01*
X15465Y12596D01*
Y12533D01*
X15401Y12469D01*
X15274D01*
X15210Y12405D01*
Y12278D01*
X15465D01*
X15593Y12596D02*
X15656Y12660D01*
X15784D01*
X15848Y12596D01*
Y12533D01*
X15784Y12469D01*
X15656D01*
X15593Y12405D01*
Y12278D01*
X15848D01*
X15975Y12341D02*
Y12596D01*
X16039Y12660D01*
X16166D01*
X16230Y12596D01*
Y12341D01*
X16166Y12278D01*
X16039D01*
X15975Y12341D01*
X16230Y12596D02*
X15975Y12341D01*
X16357D02*
Y12469D01*
X16421Y12533D01*
X16549D01*
X16612Y12469D01*
Y12341D01*
X16549Y12278D01*
X16421D01*
X16357Y12341D01*
X16740Y12660D02*
Y12278D01*
Y12405D02*
X16867Y12533D01*
X16931D01*
X16995Y12469D01*
Y12278D01*
X17122Y12533D02*
Y12278D01*
Y12469D02*
X17186Y12533D01*
X17250Y12469D01*
Y12278D01*
Y12469D02*
X17314Y12533D01*
X17377Y12469D01*
Y12278D01*
X9070Y8670D02*
Y8861D01*
X9134Y8925D01*
X9389D01*
X9452Y8861D01*
Y8670D01*
X9070Y8734D02*
X9452D01*
X9134Y9116D02*
X9070Y9180D01*
X9452D01*
Y9116D02*
Y9244D01*
X9070Y7670D02*
Y7861D01*
X9134Y7925D01*
X9389D01*
X9452Y7861D01*
Y7670D01*
X9070Y7734D02*
X9452D01*
X9389Y8053D02*
X9134D01*
X9070Y8116D01*
Y8244D01*
X9134Y8308D01*
X9389D01*
X9452Y8244D01*
Y8116D01*
X9389Y8053D01*
X9134Y8308D02*
X9389Y8053D01*
X2705Y4271D02*
X2641Y4208D01*
X2514D01*
X2450Y4271D01*
Y4526D01*
X2514Y4590D01*
X2641D01*
X2705Y4526D01*
X2896D02*
X2960Y4590D01*
Y4208D01*
X2896D02*
X3024D01*
X6485Y4261D02*
X6421Y4198D01*
X6294D01*
X6230Y4261D01*
Y4516D01*
X6294Y4580D01*
X6421D01*
X6485Y4516D01*
X6612D02*
X6676Y4580D01*
X6804D01*
X6868Y4516D01*
Y4453D01*
X6804Y4389D01*
X6676D01*
X6612Y4325D01*
Y4198D01*
X6868D01*
X14500Y11250D02*
Y10867D01*
Y11250D02*
X14691D01*
X14755Y11186D01*
Y11123D01*
X14691Y11059D01*
X14500D01*
X14564D02*
X14755Y10867D01*
X14946Y11186D02*
X15010Y11250D01*
Y10867D01*
X14946D02*
X15074D01*
X18750Y8564D02*
Y8755D01*
X19069D01*
X19132Y8691D01*
Y8564D01*
X19069Y8500D01*
X18750Y8883D02*
X19132D01*
X18750D02*
Y9074D01*
X18814Y9137D01*
X18877D01*
X18941Y9074D01*
Y8883D01*
X18814Y9329D02*
X18750Y9393D01*
X19132D01*
Y9329D02*
Y9456D01*
X2250Y9000D02*
X2441D01*
X2505Y8936D01*
Y8681D01*
X2441Y8617D01*
X2250D01*
X2314Y9000D02*
Y8617D01*
X2696Y8936D02*
X2760Y9000D01*
Y8617D01*
X2696D02*
X2824D01*
D11*
X19897Y5265D02*
Y5000D01*
X19500D01*
X19831Y5662D02*
X19897Y5596D01*
Y5464D01*
X19831Y5397D01*
X19566D01*
X19500Y5464D01*
Y5596D01*
X19566Y5662D01*
X19500Y5795D02*
Y5994D01*
X19566Y6060D01*
X19831D01*
X19897Y5994D01*
Y5795D01*
X19500Y5861D02*
X19897D01*
X19699Y6193D02*
Y6458D01*
X19566Y6656D02*
X19500Y6723D01*
X19897D01*
Y6656D02*
Y6789D01*
X19765Y6988D02*
X19699Y7054D01*
Y7186D01*
X19765Y7253D01*
X19831D01*
X19897Y7186D01*
Y7054D01*
X19831Y6988D01*
X19765D01*
X19633D01*
X19500Y7120D01*
Y7186D01*
X19831Y7385D02*
X19566D01*
X19500Y7451D01*
Y7584D01*
X19566Y7650D01*
X19831D01*
X19897Y7584D01*
Y7451D01*
X19831Y7385D01*
X19566Y7650D02*
X19831Y7385D01*
X19566Y7783D02*
X19500Y7849D01*
Y7981D01*
X19566Y8048D01*
X19633D01*
X19699Y7981D01*
Y7849D01*
X19765Y7783D01*
X19897D01*
Y8048D01*
D12*
X6220Y1680D02*
Y1905D01*
Y2130D01*
X6520D01*
X6220Y1905D02*
X6445D01*
X6745Y1680D02*
X6895D01*
X6745Y1905D02*
X6820D01*
Y1680D01*
Y2130D02*
Y2055D01*
X7420Y1980D02*
Y1605D01*
X7345Y1530D01*
X7120D01*
X7420Y1830D02*
X7270Y1680D01*
X7195D01*
X7120Y1755D01*
Y1905D01*
X7195Y1980D01*
X7345D01*
X7420Y1905D01*
X7570Y2130D02*
X7870D01*
X7720D02*
Y1680D01*
X8020Y1980D02*
Y1680D01*
Y1830D02*
X8170Y1980D01*
X8245D01*
X8320Y1905D01*
X8470Y1755D02*
Y1905D01*
X8545Y1980D01*
X8695D01*
X8770Y1905D01*
Y1755D01*
X8695Y1680D01*
X8545D01*
X8470Y1755D01*
X8920Y1980D02*
Y1680D01*
Y1830D02*
X9070Y1980D01*
X9145D01*
X9220Y1905D01*
Y1680D01*
X9445D02*
X9595D01*
X9445Y1905D02*
X9520D01*
Y1680D01*
Y2130D02*
Y2055D01*
X9820Y2130D02*
Y2055D01*
X10120Y1755D01*
Y1680D01*
X9820D02*
Y1755D01*
X10120Y2055D01*
Y2130D01*
X10720Y1905D02*
X11020D01*
X11620Y2055D02*
X11695Y2130D01*
X11845D01*
X11920Y2055D01*
Y1980D01*
X11845Y1905D01*
X11695D01*
X11620Y1830D01*
Y1680D01*
X11920D01*
X12070Y1755D02*
Y2055D01*
X12145Y2130D01*
X12295D01*
X12370Y2055D01*
Y1755D01*
X12295Y1680D01*
X12145D01*
X12070Y1755D01*
X12370Y2055D02*
X12070Y1755D01*
X12520Y2055D02*
X12595Y2130D01*
X12745D01*
X12820Y2055D01*
Y1980D01*
X12745Y1905D01*
X12595D01*
X12520Y1830D01*
Y1680D01*
X12820D01*
X12970Y1980D02*
Y2130D01*
X13270D01*
X12970Y1980D02*
X13195D01*
X13270Y1905D01*
Y1755D01*
X13195Y1680D01*
X13045D01*
X12970Y1755D01*
X4250Y4275D02*
X4550D01*
X4400Y4425D02*
Y4125D01*
D13*
X15945Y4190D02*
Y3939D01*
X15778Y3771D01*
X15610Y3939D01*
Y4190D01*
X15778Y3771D02*
Y3688D01*
X16113Y4190D02*
Y3688D01*
Y4190D02*
X16364D01*
X16448Y4106D01*
Y4023D01*
X16364Y3939D01*
X16113D01*
X16196D02*
X16448Y3688D01*
X16699Y4106D02*
X16783Y4190D01*
Y3688D01*
X16699D02*
X16866D01*
X3500Y12084D02*
Y12335D01*
X3919D01*
X4002Y12251D01*
Y12084D01*
X3919Y12000D01*
X3584Y12586D02*
X3500Y12670D01*
X4002D01*
Y12586D02*
Y12754D01*
D14*
X5500Y9500D02*
Y7500D01*
X12750D01*
Y9500D01*
D15*
X5065Y403D02*
X4600D01*
Y1100D01*
X5762Y519D02*
X5646Y403D01*
X5414D01*
X5297Y519D01*
Y984D01*
X5414Y1100D01*
X5646D01*
X5762Y984D01*
X5995Y1100D02*
X6344D01*
X6460Y984D01*
Y519D01*
X6344Y403D01*
X5995D01*
X6111Y1100D02*
Y403D01*
X6809Y984D02*
X6925Y1100D01*
Y403D01*
X6809D02*
X7041D01*
X7390Y635D02*
X7506Y751D01*
X7739D01*
X7855Y635D01*
Y519D01*
X7739Y403D01*
X7506D01*
X7390Y519D01*
Y635D01*
Y867D01*
X7623Y1100D01*
X7739D01*
X8087Y519D02*
Y984D01*
X8204Y1100D01*
X8436D01*
X8552Y984D01*
Y519D01*
X8436Y403D01*
X8204D01*
X8087Y519D01*
X8552Y984D02*
X8087Y519D01*
X8785Y984D02*
X8901Y1100D01*
X9134D01*
X9250Y984D01*
Y867D01*
X9134Y751D01*
X8901D01*
X8785Y635D01*
Y403D01*
X9250D01*
X10180Y1100D02*
X10529D01*
X10645Y984D01*
Y867D01*
X10529Y751D01*
X10296D01*
X10529D02*
X10645Y635D01*
Y519D01*
X10529Y403D01*
X10180D01*
X10296Y1100D02*
Y403D01*
X10877Y867D02*
Y403D01*
Y635D02*
X11110Y867D01*
X11226D01*
X11342Y751D01*
X11924Y403D02*
X11691D01*
X11575Y519D01*
Y751D01*
X11691Y867D01*
X11924D01*
X12040Y751D01*
Y635D01*
X11575D01*
X12389Y867D02*
X12621D01*
X12737Y751D01*
Y403D01*
Y519D02*
X12621Y403D01*
X12389D01*
X12272Y519D01*
X12389Y635D01*
X12737D01*
X12970Y1100D02*
X13086D01*
Y403D01*
X13435D02*
X13202Y635D01*
X13435Y867D01*
X13086Y635D02*
X13202D01*
X13667Y519D02*
Y751D01*
X13784Y867D01*
X14016D01*
X14132Y751D01*
Y519D01*
X14016Y403D01*
X13784D01*
X13667Y519D01*
X14830Y635D02*
X14597Y403D01*
X14481D01*
X14365Y519D01*
Y867D01*
X14830D02*
Y403D01*
X15527Y519D02*
X15411Y403D01*
X15295D01*
X15179Y519D01*
Y1100D01*
X15062Y867D02*
X15411D01*
X6169Y8730D02*
Y9195D01*
Y7730D02*
Y8195D01*
X7169Y8730D02*
Y9195D01*
X6936Y8962D02*
X7401D01*
X7169Y7730D02*
Y8195D01*
X6936Y7962D02*
X7401D01*
D16*
X4250Y3800D02*
Y3200D01*
X4050Y3000D01*
X2450D01*
X2250Y3200D01*
Y3800D01*
X2450Y4000D01*
X4050D01*
X4250Y3800D01*
X8000D02*
Y3200D01*
X7800Y3000D01*
X6200D01*
X6000Y3200D01*
Y3800D01*
X6200Y4000D01*
X15700Y11450D02*
Y12050D01*
X6200Y4000D02*
X7800D01*
X8000Y3800D01*
X16800Y12050D02*
X15700D01*
X16800D02*
Y11450D01*
X15700D02*
X16800D01*
X15700Y11750D02*
X15450D01*
X16800D02*
X17050D01*
X2250Y5000D02*
Y7000D01*
X19250D02*
X2250D01*
X19250D02*
Y5000D01*
X2250D02*
X19250D01*
X12700Y4450D02*
X20200D01*
Y2550D02*
Y4450D01*
Y2550D02*
X12700D01*
Y4450D02*
Y2550D01*
X20200Y3950D02*
X20800D01*
Y3050D02*
Y3950D01*
Y3050D02*
X20200D01*
Y3950D02*
Y3050D01*
X15400Y8500D02*
Y11000D01*
X18600D02*
X15400D01*
X18600D02*
Y8500D01*
X15400D02*
X18600D01*
X16000Y8560D02*
Y8740D01*
X18000D02*
X16000D01*
X18000D02*
Y8560D01*
X16000D02*
X18000D01*
X16000Y8620D02*
Y8680D01*
X18000D02*
X16000D01*
X18000D02*
Y8620D01*
X16000D02*
X18000D01*
X4300Y9550D02*
Y12950D01*
X14200D02*
X4300D01*
X14200D02*
Y9550D01*
X4300D02*
X14200D01*
X3900Y9250D02*
Y8250D01*
X1600D02*
X3900D01*
X1600D02*
Y9250D01*
X3900D02*
X1600D01*
X3900Y8750D02*
X4250D01*
X1600D02*
X1250D01*
X3550Y9250D02*
Y8250D01*
D17*
X14800Y8180D02*
X15050Y8430D01*
Y8180D01*
X14800D01*
Y8430D01*
X15050D01*
X3790Y9740D02*
X4040Y9990D01*
Y9740D01*
X3790D01*
Y9990D01*
X4040D01*
X4920Y7520D02*
X5170Y7770D01*
Y7520D01*
X4920D01*
Y7770D01*
X5170D01*
D18*
X1709Y6956D02*
X1917Y6748D01*
X1709D01*
Y6956D01*
X1917D01*
Y6748D01*
%LPC*%
D19*
X3750Y3500D03*
X2750D03*
X14000Y4000D03*
X17000Y3000D03*
X19000Y4000D03*
X7500Y3500D03*
X6500D03*
X15000Y11750D03*
X17500D03*
D20*
X12250Y6000D03*
X4250D03*
X13250D03*
X5250D03*
X14250D03*
X6250D03*
X15250D03*
X7250D03*
X16250D03*
X8250D03*
X17250D03*
X9250D03*
X18250D03*
X10250D03*
X11250D03*
X6250Y11750D03*
X7250Y10750D03*
Y11750D03*
X8250Y10750D03*
Y11750D03*
X9250Y10750D03*
Y11750D03*
X10250Y10750D03*
Y11750D03*
X11250Y10750D03*
Y11750D03*
X12250Y10750D03*
Y11750D03*
D21*
X17000Y9750D03*
X18000D03*
X750Y8750D03*
D22*
X1250Y1000D03*
X19250Y11750D03*
Y1000D03*
X1000Y6000D03*
X1250Y11750D03*
D24*
X3250Y6000D03*
X6250Y10750D03*
D25*
X16000Y9750D03*
X4750Y8750D03*
%LPD*%
D23*
X0Y13000D02*
X20250D01*
Y0D01*
X0D01*
Y13000D01*
M02*
