M48
;
; Format:               Excellon NC Drill Ascii
; This File Name:       LCD Schematic.xln
; Source File Name:     LCD Schematic.rrb
; Unique ID:            c9e8c498-145c-48ea-bece-c2754c0c7060
; Generated Date:       Saturday, 23 August 2025 16:08:57
;
; Created Using:        Robot Room Copper Connection v2.7.5443
; Software Contact:     http://www.robotroom.com/CopperConnection/Support.aspx
; License Number:       1685
; Student Edition:      true
;
; Zero Suppression:     None
; Number Precision:     2.4
;
FMAT,2
INCH
T01C.029
T02C.035
T03C.04
T04C.125
%
T01
X002750Y003500
X003750
X006500
X007500
X014000Y004000
X017000Y003000
X019000Y004000
X017500Y011750
X015000
T02
X003250Y006000
X004250
X005250
X006250
X007250
X008250
X009250
X010250
X011250
X012250
X013250
X014250
X015250
X016250
X017250
X018250
X012250Y010750
X011250
X010250
X009250
X008250
X007250
X006250
Y011750
X007250
X008250
X009250
X010250
X011250
X012250
T03
X000750Y008750
X004750
X016000Y009750
X017000
X018000
T04
X001250Y001000
X001000Y006000
X001250Y011750
X019250
Y001000
M30
