G04*
G04 Format:               Gerber RS-274X*
G04 Layer:                TopSilkscreen*
G04 This File Name:       LCD Schematic.gto*
G04 Source File Name:     LCD Schematic.rrb*
G04 Unique ID:            95888e2a-6d13-42d3-a865-246b4b79fe9a*
G04 Generated Date:       Sunday, 24 August 2025 11:43:30*
G04*
G04 Created Using:        Robot Room Copper Connection v2.7.5443*
G04 Software Contact:     http://www.robotroom.com/CopperConnection/Support.aspx*
G04 License Number:       1685*
G04 Student Edition:      true*
G04*
G04 Zero Suppression:     Leading*
G04 Number Precision:     2.4*
G04*
%FSLAX24Y24*%
%MOIN*%
%LNTopSilkscreen*%
%ADD10C,.006*%
%ADD11C,.0062*%
%ADD12C,.0071*%
%ADD13C,.0079*%
%ADD14C,.01*%
%ADD15C,.0109*%
%ADD16C,.012*%
%ADD17C,.0235*%
%ADD18C,.0295*%
%ADD19C,.056*%
%ADD20C,.065*%
%ADD21C,.075*%
%ADD22C,.16*%
%ADD23R,.006X.006*%
%ADD24R,.065X.065*%
%ADD25R,.075X.075*%
D10*
G01X1564Y7936D02*
X1627Y8000D01*
Y7617D01*
X1564D02*
X1691D01*
X1882D02*
Y8000D01*
X2137Y7617D01*
Y8000D01*
X2520Y7617D02*
Y8000D01*
X2265D02*
Y7809D01*
X2520D01*
X2648Y7681D02*
Y7936D01*
G74*
G02X2711Y8000I64J0D01*
G01X2839D01*
G02X2903Y7936I0J64D01*
G01Y7681D01*
G02X2839Y7617I64J0D01*
G01X2711D01*
G02X2648Y7681I0J64D01*
G01X2903Y7936D01*
X3030Y7681D02*
Y7936D01*
G02X3094Y8000I64J0D01*
G01X3221D01*
G02X3285Y7936I0J64D01*
G01Y7681D01*
G02X3221Y7617I64J0D01*
G01X3094D01*
G02X3030Y7681I0J64D01*
G01X3285Y7936D01*
X3476D02*
X3540Y8000D01*
Y7617D01*
X3476D02*
X3604D01*
X694Y2646D02*
X757Y2710D01*
Y2328D01*
X694D02*
X821D01*
X1012Y2391D02*
Y2646D01*
G02X1076Y2710I64J0D01*
G01X1204D01*
G02X1267Y2646I0J64D01*
G01Y2391D01*
G02X1204Y2328I64J0D01*
G01X1076D01*
G02X1012Y2391I0J64D01*
G01X1267Y2646D01*
X1650Y2583D02*
Y2391D01*
G02X1586Y2328I64J0D01*
G01X1459D01*
G02X1395Y2391I0J64D01*
G01Y2583D01*
X1905Y2328D02*
Y2646D01*
G02X1969Y2710I64J0D01*
G01X1982Y2709D01*
X1995Y2706D01*
X2007Y2701D01*
X2017Y2694D01*
X2025Y2685D01*
X2030Y2676D01*
X2032Y2662D01*
X1841Y2583D02*
X1969D01*
X1841Y2328D02*
X1969D01*
X3724Y2586D02*
X3788Y2650D01*
Y2268D01*
X3724D02*
X3851D01*
X4043Y2331D02*
Y2586D01*
G02X4106Y2650I64J0D01*
G01X4234D01*
G02X4298Y2586I0J64D01*
G01Y2331D01*
G02X4234Y2268I64J0D01*
G01X4106D01*
G02X4043Y2331I0J64D01*
G01X4298Y2586D01*
X4425Y2331D02*
Y2586D01*
G02X4489Y2650I64J0D01*
G01X4616D01*
G02X4680Y2586I0J64D01*
G01Y2331D01*
G02X4616Y2268I64J0D01*
G01X4489D01*
G02X4425Y2331I0J64D01*
G01X4680Y2586D01*
X4808Y2523D02*
Y2268D01*
Y2459D02*
G02X4871Y2523I64J0D01*
G01X4999D01*
G02X5063Y2459I0J64D01*
G01Y2268D01*
X5318D02*
Y2586D01*
G02X5381Y2650I64J0D01*
G01X5395Y2649D01*
X5408Y2646D01*
X5419Y2641D01*
X5429Y2634D01*
X5437Y2625D01*
X5442Y2616D01*
X5445Y2602D01*
X5254Y2523D02*
X5381D01*
X5254Y2268D02*
X5381D01*
X12114Y3434D02*
X12050Y3498D01*
X12432D01*
Y3434D02*
Y3561D01*
X12369Y3752D02*
X12114D01*
G02X12050Y3816I0J64D01*
G01Y3944D01*
G02X12114Y4007I64J0D01*
G01X12369D01*
G02X12432Y3944I0J64D01*
G01Y3816D01*
G02X12369Y3752I64J0D01*
G01X12114Y4007D01*
X12050Y4199D02*
X12432D01*
X12177Y4390D02*
X12305Y4262D01*
X12432Y4390D01*
X12305Y4199D02*
Y4262D01*
X6990Y8885D02*
X7309D01*
G02X7372Y8821I0J64D01*
X7309Y8757I64J0D01*
G01X7181D01*
X7309D01*
G02X7372Y8694I0J64D01*
X7309Y8630I64J0D01*
G01X6990D01*
Y9013D02*
X7372D01*
X6990D02*
Y9204D01*
G02X7054Y9267I64J0D01*
G01X7117D01*
G02X7181Y9204I0J64D01*
G01Y9013D01*
Y9076D02*
X7372Y9267D01*
X8452Y7670D02*
X8134D01*
G02X8070Y7734I0J64D01*
G01Y7861D01*
G02X8134Y7925I64J0D01*
G01X8452D01*
X8261Y7670D02*
Y7925D01*
X8389Y8053D02*
X8134D01*
G02X8070Y8116I0J64D01*
G01Y8244D01*
G02X8134Y8308I64J0D01*
G01X8389D01*
G02X8452Y8244I0J64D01*
G01Y8116D01*
G02X8389Y8053I64J0D01*
G01X8134Y8308D01*
X8389Y8925D02*
G02X8452Y8861I0J64D01*
G01Y8734D01*
G02X8389Y8670I64J0D01*
G01X8134D01*
G02X8070Y8734I0J64D01*
G01Y8861D01*
G02X8134Y8925I64J0D01*
G01X8070Y9308D02*
Y9053D01*
X8452D01*
Y9308D01*
X8261Y9053D02*
Y9244D01*
X12070Y8670D02*
Y8861D01*
G02X12134Y8925I64J0D01*
G01X12389D01*
G02X12452Y8861I0J64D01*
G01Y8670D01*
X12070D01*
Y9053D02*
Y9308D01*
X12452Y9116D01*
X12070Y7670D02*
Y7861D01*
G02X12134Y7925I64J0D01*
G01X12389D01*
G02X12452Y7861I0J64D01*
G01Y7670D01*
X12070D01*
X12325Y8053D02*
G02X12261Y8116I0J64D01*
G01Y8244D01*
G02X12325Y8308I64J0D01*
G01X12389D01*
G02X12452Y8244I0J64D01*
G01Y8116D01*
G02X12389Y8053I64J0D01*
G01X12134D01*
G02X12070Y8116I0J64D01*
G01Y8244D01*
G02X12134Y8308I64J0D01*
G01X11070Y8670D02*
Y8861D01*
G02X11134Y8925I64J0D01*
G01X11389D01*
G02X11453Y8861I0J64D01*
G01Y8670D01*
X11070D01*
Y9308D02*
Y9053D01*
X11261D01*
Y9244D01*
G02X11325Y9308I64J0D01*
G01X11389D01*
G02X11453Y9244I0J64D01*
G01Y9116D01*
G02X11389Y9053I64J0D01*
G01X11070Y7670D02*
Y7861D01*
G02X11134Y7925I64J0D01*
G01X11389D01*
G02X11453Y7861I0J64D01*
G01Y7670D01*
X11070D01*
X11453Y8308D02*
X11070D01*
Y8053D02*
X11261D01*
Y8308D01*
X10070Y8670D02*
Y8861D01*
G02X10134Y8925I64J0D01*
G01X10389D01*
G02X10452Y8861I0J64D01*
G01Y8670D01*
X10070D01*
X10134Y9053D02*
G02X10070Y9116I0J64D01*
G01Y9244D01*
G02X10134Y9308I64J0D01*
G01X10197D01*
G02X10261Y9244I0J64D01*
G01Y9180D01*
Y9244D02*
G02X10325Y9308I64J0D01*
G01X10389D01*
G02X10452Y9244I0J64D01*
G01Y9116D01*
G02X10389Y9053I64J0D01*
G01X10070Y7670D02*
Y7861D01*
G02X10134Y7925I64J0D01*
G01X10389D01*
G02X10452Y7861I0J64D01*
G01Y7670D01*
X10070D01*
X10134Y8053D02*
G02X10070Y8116I0J64D01*
G01Y8244D01*
G02X10134Y8308I64J0D01*
G01X10197D01*
G02X10261Y8244I0J64D01*
G01Y8116D01*
X10325Y8053D02*
G02X10261Y8116I0J64D01*
G01X10325Y8053D02*
X10452D01*
Y8308D01*
X15210Y12596D02*
G02X15274Y12660I64J0D01*
G01X15401D01*
G02X15465Y12596I0J64D01*
G01Y12533D01*
G02X15401Y12469I64J0D01*
G01X15274D01*
X15210Y12405D02*
G02X15274Y12469I64J0D01*
G01X15210Y12405D02*
Y12278D01*
X15465D01*
X15593Y12596D02*
G02X15656Y12660I64J0D01*
G01X15784D01*
G02X15848Y12596I0J64D01*
G01Y12533D01*
G02X15784Y12469I64J0D01*
G01X15656D01*
X15593Y12405D02*
G02X15656Y12469I64J0D01*
G01X15593Y12405D02*
Y12278D01*
X15848D01*
X15975Y12341D02*
Y12596D01*
G02X16039Y12660I64J0D01*
G01X16166D01*
G02X16230Y12596I0J64D01*
G01Y12341D01*
G02X16166Y12278I64J0D01*
G01X16039D01*
G02X15975Y12341I0J64D01*
G01X16230Y12596D01*
X16357Y12341D02*
Y12469D01*
G02X16421Y12533I64J0D01*
G01X16549D01*
G02X16612Y12469I0J64D01*
G01Y12341D01*
G02X16549Y12278I64J0D01*
G01X16421D01*
G02X16357Y12341I0J64D01*
G01X16740Y12660D02*
Y12278D01*
Y12469D02*
G02X16804Y12533I64J0D01*
G01X16931D01*
G02X16995Y12469I0J64D01*
G01Y12278D01*
X17122Y12533D02*
Y12278D01*
Y12469D02*
G02X17186Y12533I64J0D01*
X17250Y12469I0J64D01*
G01Y12278D01*
Y12469D02*
G02X17314Y12533I64J0D01*
X17377Y12469I0J64D01*
G01Y12278D01*
X9070Y8670D02*
Y8861D01*
G02X9134Y8925I64J0D01*
G01X9389D01*
G02X9452Y8861I0J64D01*
G01Y8670D01*
X9070D01*
X9134Y9116D02*
X9070Y9180D01*
X9452D01*
Y9116D02*
Y9244D01*
X9070Y7670D02*
Y7861D01*
G02X9134Y7925I64J0D01*
G01X9389D01*
G02X9452Y7861I0J64D01*
G01Y7670D01*
X9070D01*
X9389Y8053D02*
X9134D01*
G02X9070Y8116I0J64D01*
G01Y8244D01*
G02X9134Y8308I64J0D01*
G01X9389D01*
G02X9452Y8244I0J64D01*
G01Y8116D01*
G02X9389Y8053I64J0D01*
G01X9134Y8308D01*
X1085Y4231D02*
G02X1021Y4168I64J0D01*
G01X894D01*
G02X830Y4231I0J64D01*
G01Y4486D01*
G02X894Y4550I64J0D01*
G01X1021D01*
G02X1085Y4486I0J64D01*
G01X1276D02*
X1340Y4550D01*
Y4168D01*
X1276D02*
X1404D01*
X3945Y4241D02*
G02X3881Y4178I64J0D01*
G01X3754D01*
G02X3690Y4241I0J64D01*
G01Y4496D01*
G02X3754Y4560I64J0D01*
G01X3881D01*
G02X3945Y4496I0J64D01*
G01X4073D02*
G02X4136Y4560I64J0D01*
G01X4264D01*
G02X4327Y4496I0J64D01*
G01Y4432D01*
G02X4264Y4369I64J0D01*
G01X4136D01*
X4073Y4305D02*
G02X4136Y4369I64J0D01*
G01X4073Y4305D02*
Y4178D01*
X4327D01*
X14500Y11250D02*
Y10867D01*
Y11250D02*
X14691D01*
G02X14755Y11186I0J64D01*
G01Y11123D01*
G02X14691Y11059I64J0D01*
G01X14500D01*
X14564D02*
X14755Y10867D01*
X14946Y11186D02*
X15010Y11250D01*
Y10867D01*
X14946D02*
X15074D01*
X18750Y8755D02*
X19069D01*
G02X19132Y8691I0J64D01*
G01Y8564D01*
G02X19069Y8500I64J0D01*
G01X18750Y8883D02*
X19132D01*
X18750D02*
Y9074D01*
G02X18814Y9137I64J0D01*
G01X18877D01*
G02X18941Y9074I0J64D01*
G01Y8883D01*
X18814Y9329D02*
X18750Y9393D01*
X19132D01*
Y9329D02*
Y9456D01*
X7990Y4630D02*
Y4248D01*
Y4630D02*
X8181D01*
G02X8245Y4566I0J64D01*
G01Y4503D01*
G02X8181Y4439I64J0D01*
G01X7990D01*
X8054D02*
X8245Y4248D01*
X8372Y4566D02*
G02X8436Y4630I64J0D01*
G01X8564D01*
G02X8627Y4566I0J64D01*
G01Y4503D01*
G02X8564Y4439I64J0D01*
G01X8436D01*
X8372Y4375D02*
G02X8436Y4439I64J0D01*
G01X8372Y4375D02*
Y4248D01*
X8627D01*
X2250Y9000D02*
X2441D01*
G02X2505Y8936I0J64D01*
G01Y8681D01*
G02X2441Y8617I64J0D01*
G01X2250D01*
Y9000D01*
X2696Y8936D02*
X2760Y9000D01*
Y8617D01*
X2696D02*
X2824D01*
D11*
X19500Y5000D02*
X19897D01*
Y5265D01*
X19831Y5662D02*
G02X19897Y5596I0J66D01*
G01Y5464D01*
G02X19831Y5397I66J0D01*
G01X19566D01*
G02X19500Y5464I0J66D01*
G01Y5596D01*
G02X19566Y5662I66J0D01*
G01X19500Y5795D02*
Y5994D01*
G02X19566Y6060I66J0D01*
G01X19831D01*
G02X19897Y5994I0J66D01*
G01Y5795D01*
X19500D01*
X19699Y6193D02*
Y6458D01*
X19566Y6656D02*
X19500Y6723D01*
X19897D01*
Y6656D02*
Y6789D01*
X19765Y6988D02*
G02X19699Y7054I0J66D01*
G01Y7186D01*
G02X19765Y7253I66J0D01*
G01X19831D01*
G02X19897Y7186I0J66D01*
G01Y7054D01*
G02X19831Y6988I66J0D01*
G01X19566D01*
G02X19500Y7054I0J66D01*
G01Y7186D01*
G02X19566Y7253I66J0D01*
G01X19831Y7385D02*
X19566D01*
G02X19500Y7451I0J66D01*
G01Y7584D01*
G02X19566Y7650I66J0D01*
G01X19831D01*
G02X19897Y7584I0J66D01*
G01Y7451D01*
G02X19831Y7385I66J0D01*
G01X19566Y7650D01*
Y7783D02*
G02X19500Y7849I0J66D01*
G01Y7981D01*
G02X19566Y8048I66J0D01*
G01X19633D01*
G02X19699Y7981I0J66D01*
G01Y7849D01*
X19765Y7783D02*
G02X19699Y7849I0J66D01*
G01X19765Y7783D02*
X19897D01*
Y8048D01*
D12*
X6520Y2130D02*
X6220D01*
Y1680D01*
Y1905D02*
X6445D01*
X6820Y1980D02*
Y1680D01*
Y2130D02*
Y2093D01*
X7420Y1980D02*
Y1605D01*
G02X7345Y1530I75J0D01*
G01X7120D01*
X7420Y1755D02*
G02X7345Y1680I75J0D01*
G01X7195D01*
G02X7120Y1755I0J75D01*
G01Y1905D01*
G02X7195Y1980I75J0D01*
G01X7345D01*
G02X7420Y1905I0J75D01*
G01X7570Y2130D02*
X7870D01*
X7720D02*
Y1680D01*
X8020Y1980D02*
Y1680D01*
Y1905D02*
G02X8095Y1980I75J0D01*
G01X8245D01*
G02X8320Y1905I0J75D01*
G01X8470Y1755D02*
Y1905D01*
G02X8545Y1980I75J0D01*
G01X8695D01*
G02X8770Y1905I0J75D01*
G01Y1755D01*
G02X8695Y1680I75J0D01*
G01X8545D01*
G02X8470Y1755I0J75D01*
G01X8920Y1980D02*
Y1680D01*
Y1905D02*
G02X8995Y1980I75J0D01*
G01X9145D01*
G02X9220Y1905I0J75D01*
G01Y1680D01*
X9520Y1980D02*
Y1680D01*
Y2130D02*
Y2093D01*
X9820Y2130D02*
X10120Y1680D01*
X9820D02*
X10120Y2130D01*
X10720Y1905D02*
X11020D01*
X11620Y2055D02*
G02X11695Y2130I75J0D01*
G01X11845D01*
G02X11920Y2055I0J75D01*
G01Y1980D01*
G02X11845Y1905I75J0D01*
G01X11695D01*
X11620Y1830D02*
G02X11695Y1905I75J0D01*
G01X11620Y1830D02*
Y1680D01*
X11920D01*
X12070Y1755D02*
Y2055D01*
G02X12145Y2130I75J0D01*
G01X12295D01*
G02X12370Y2055I0J75D01*
G01Y1755D01*
G02X12295Y1680I75J0D01*
G01X12145D01*
G02X12070Y1755I0J75D01*
G01X12370Y2055D01*
X12520D02*
G02X12595Y2130I75J0D01*
G01X12745D01*
G02X12820Y2055I0J75D01*
G01Y1980D01*
G02X12745Y1905I75J0D01*
G01X12595D01*
X12520Y1830D02*
G02X12595Y1905I75J0D01*
G01X12520Y1830D02*
Y1680D01*
X12820D01*
X13270Y2130D02*
X12970D01*
Y1905D01*
X13195D01*
G02X13270Y1830I0J75D01*
G01Y1755D01*
G02X13195Y1680I75J0D01*
G01X13045D01*
G02X12970Y1755I0J75D01*
G01X2630Y4235D02*
X2930D01*
X2780Y4385D02*
Y4085D01*
D13*
X15610Y4190D02*
X15778Y3688D01*
X15945Y4190D01*
X16113D02*
Y3688D01*
Y4190D02*
X16364D01*
G02X16448Y4106I0J84D01*
G01Y4023D01*
G02X16364Y3939I84J0D01*
G01X16113D01*
X16196D02*
X16448Y3688D01*
X16699Y4106D02*
X16783Y4190D01*
Y3688D01*
X16699D02*
X16866D01*
X3500Y12335D02*
X3919D01*
G02X4002Y12251I0J84D01*
G01Y12084D01*
G02X3919Y12000I84J0D01*
G01X3584Y12586D02*
X3500Y12670D01*
X4002D01*
Y12586D02*
Y12754D01*
D14*
X5500Y9500D02*
Y7500D01*
X12750D01*
Y9500D01*
D15*
X4600Y1100D02*
Y403D01*
X5065D01*
X5762Y519D02*
G02X5646Y403I116J0D01*
G01X5414D01*
G02X5297Y519I0J116D01*
G01Y984D01*
G02X5414Y1100I116J0D01*
G01X5646D01*
G02X5762Y984I0J116D01*
G01X5995Y1100D02*
X6344D01*
G02X6460Y984I0J116D01*
G01Y519D01*
G02X6344Y403I116J0D01*
G01X5995D01*
Y1100D01*
X6809Y984D02*
X6925Y1100D01*
Y403D01*
X6809D02*
X7041D01*
X7390Y635D02*
G02X7506Y751I116J0D01*
G01X7739D01*
G02X7855Y635I0J116D01*
G01Y519D01*
G02X7739Y403I116J0D01*
G01X7506D01*
G02X7390Y519I0J116D01*
G01Y984D01*
G02X7506Y1100I116J0D01*
G01X7739D01*
G02X7855Y984I0J116D01*
G01X8087Y519D02*
Y984D01*
G02X8204Y1100I116J0D01*
G01X8436D01*
G02X8552Y984I0J116D01*
G01Y519D01*
G02X8436Y403I116J0D01*
G01X8204D01*
G02X8087Y519I0J116D01*
G01X8552Y984D01*
X8785D02*
G02X8901Y1100I116J0D01*
G01X9134D01*
G02X9250Y984I0J116D01*
G01Y867D01*
G02X9134Y751I116J0D01*
G01X8901D01*
X8785Y635D02*
G02X8901Y751I116J0D01*
G01X8785Y635D02*
Y403D01*
X9250D01*
X10180Y1100D02*
X10529D01*
G02X10645Y984I0J116D01*
G01Y867D01*
G02X10529Y751I116J0D01*
G01X10180D01*
X10529D02*
G02X10645Y635I0J116D01*
G01Y519D01*
G02X10529Y403I116J0D01*
G01X10180D01*
Y1100D01*
X10877Y867D02*
Y403D01*
Y751D02*
G02X10994Y867I116J0D01*
G01X11226D01*
G02X11342Y751I0J116D01*
G01X12040Y403D02*
X11691D01*
G02X11575Y519I0J116D01*
G01Y751D01*
G02X11691Y867I116J0D01*
G01X11924D01*
G02X12040Y751I0J116D01*
G01Y635D01*
X11575D01*
X12389Y867D02*
X12621D01*
G02X12737Y751I0J116D01*
G01Y403D01*
Y519D02*
G02X12621Y403I116J0D01*
G01X12389D01*
G02X12272Y519I0J116D01*
X12389Y635I116J0D01*
G01X12737D01*
X13086Y1100D02*
Y403D01*
X13435Y867D02*
X13202Y635D01*
X13435Y403D01*
X13086Y635D02*
X13202D01*
X13667Y519D02*
Y751D01*
G02X13784Y867I116J0D01*
G01X14016D01*
G02X14132Y751I0J116D01*
G01Y519D01*
G02X14016Y403I116J0D01*
G01X13784D01*
G02X13667Y519I0J116D01*
G01X14830Y867D02*
Y519D01*
G02X14714Y403I116J0D01*
G01X14481D01*
G02X14365Y519I0J116D01*
G01Y867D01*
X15469Y519D02*
G02X15353Y403I116J0D01*
G01X15295D01*
G02X15179Y519I0J116D01*
G01Y1100D01*
X15062Y867D02*
X15411D01*
X6169Y8730D02*
Y9195D01*
Y7730D02*
Y8195D01*
X7169Y7730D02*
Y8195D01*
X6936Y7962D02*
X7401D01*
D16*
X2630Y3760D02*
Y3160D01*
X2430Y2960D01*
X830D01*
X630Y3160D01*
Y3760D01*
X830Y3960D01*
X2430D01*
X2630Y3760D01*
X5460Y3780D02*
Y3180D01*
X5260Y2980D01*
X3660D01*
X3460Y3180D01*
Y3780D01*
X3660Y3980D01*
X15700Y11450D02*
Y12050D01*
X3660Y3980D02*
X5260D01*
X5460Y3780D01*
X16800Y12050D02*
X15700D01*
X16800D02*
Y11450D01*
X15700D02*
X16800D01*
X15700Y11750D02*
X15450D01*
X16800D02*
X17050D01*
X2250Y5000D02*
Y7000D01*
X19250D02*
X2250D01*
X19250D02*
Y5000D01*
X2250D02*
X19250D01*
X12700Y4450D02*
X20200D01*
Y2550D02*
Y4450D01*
Y2550D02*
X12700D01*
Y4450D02*
Y2550D01*
X20200Y3950D02*
X20800D01*
Y3050D02*
Y3950D01*
Y3050D02*
X20200D01*
Y3950D02*
Y3050D01*
X15400Y8500D02*
Y11000D01*
X18600D02*
X15400D01*
X18600D02*
Y8500D01*
X15400D02*
X18600D01*
X16000Y8560D02*
Y8740D01*
X18000D02*
X16000D01*
X18000D02*
Y8560D01*
X16000D02*
X18000D01*
X16000Y8620D02*
Y8680D01*
X18000D02*
X16000D01*
X18000D02*
Y8620D01*
X16000D02*
X18000D01*
X4300Y9550D02*
Y12950D01*
X14200D02*
X4300D01*
X14200D02*
Y9550D01*
X4300D02*
X14200D01*
X9050Y4050D02*
Y3450D01*
X7950D02*
X9050D01*
X7950D02*
Y4050D01*
X9050D02*
X7950D01*
X9050Y3750D02*
X9300D01*
X7950D02*
X7700D01*
X3900Y9250D02*
Y8250D01*
X1600D02*
X3900D01*
X1600D02*
Y9250D01*
X3900D02*
X1600D01*
X3900Y8750D02*
X4250D01*
X1600D02*
X1250D01*
X3550Y9250D02*
Y8250D01*
D17*
X14925Y8305D02*
G02X14800Y8430I0J125D01*
X14925Y8555I125J0D01*
X15050Y8430I0J125D01*
X14925Y8305I125J0D01*
G01X14863Y8430D02*
X14988D01*
X3915Y9865D02*
G02X3790Y9990I0J125D01*
X3915Y10115I125J0D01*
X4040Y9990I0J125D01*
X3915Y9865I125J0D01*
G01X3853Y9990D02*
X3978D01*
X5045Y7645D02*
G02X4920Y7770I0J125D01*
X5045Y7895I125J0D01*
X5170Y7770I0J125D01*
X5045Y7645I125J0D01*
G01X4983Y7770D02*
X5107D01*
D18*
X1813Y6852D02*
G02X1917Y6956I104J0D01*
X2022Y6852I0J104D01*
X1917Y6748I104J0D01*
X1813Y6852I0J104D01*
G01X1917Y6904D02*
Y6800D01*
%LPC*%
D19*
X2130Y3460D03*
X1130D03*
X14000Y4000D03*
X17000Y3000D03*
X19000Y4000D03*
X4960Y3480D03*
X3960D03*
X15000Y11750D03*
X17500D03*
X9750Y3750D03*
X7250D03*
D20*
X12250Y6000D03*
X4250D03*
X13250D03*
X5250D03*
X14250D03*
X6250D03*
X15250D03*
X7250D03*
X16250D03*
X8250D03*
X17250D03*
X9250D03*
X18250D03*
X10250D03*
X11250D03*
X6250Y11750D03*
X7250Y10750D03*
Y11750D03*
X8250Y10750D03*
Y11750D03*
X9250Y10750D03*
Y11750D03*
X10250Y10750D03*
Y11750D03*
X11250Y10750D03*
Y11750D03*
X12250Y10750D03*
Y11750D03*
D21*
X17000Y9750D03*
X18000D03*
X750Y8750D03*
D22*
X1250Y1000D03*
X19250Y11750D03*
Y1000D03*
X1000Y6000D03*
X1250Y11750D03*
D24*
X3250Y6000D03*
X6250Y10750D03*
D25*
X16000Y9750D03*
X4750Y8750D03*
%LPD*%
D23*
X0Y13000D02*
X20250D01*
Y0D01*
X0D01*
Y13000D01*
M02*
