G04*
G04 Format:               Gerber RS-274X*
G04 Layer:                TopSolderMask*
G04 This File Name:       LCD Schematic.gts*
G04 Source File Name:     LCD Schematic.rrb*
G04 Unique ID:            95888e2a-6d13-42d3-a865-246b4b79fe9a*
G04 Generated Date:       Sunday, 24 August 2025 11:43:30*
G04*
G04 Created Using:        Robot Room Copper Connection v2.7.5443*
G04 Software Contact:     http://www.robotroom.com/CopperConnection/Support.aspx*
G04 License Number:       1685*
G04 Student Edition:      true*
G04*
G04 Zero Suppression:     Leading*
G04 Number Precision:     2.4*
G04*
G04 Polarity:             Negative. Dark is solderable. Clear space is coating.*
G04*
%FSLAX24Y24*%
%MOIN*%
%LNTopSolderMask*%
%ADD10C,.066*%
%ADD11C,.075*%
%ADD12C,.085*%
%ADD13C,.17*%
%ADD14R,.006X.006*%
%ADD15R,.075X.075*%
%ADD16R,.085X.085*%
D10*
G01X2130Y3460D03*
X1130D03*
X14000Y4000D03*
X17000Y3000D03*
X19000Y4000D03*
X4960Y3480D03*
X3960D03*
X15000Y11750D03*
X17500D03*
X9750Y3750D03*
X7250D03*
D11*
X12250Y6000D03*
X4250D03*
X13250D03*
X5250D03*
X14250D03*
X6250D03*
X15250D03*
X7250D03*
X16250D03*
X8250D03*
X17250D03*
X9250D03*
X18250D03*
X10250D03*
X11250D03*
X6250Y11750D03*
X7250Y10750D03*
Y11750D03*
X8250Y10750D03*
Y11750D03*
X9250Y10750D03*
Y11750D03*
X10250Y10750D03*
Y11750D03*
X11250Y10750D03*
Y11750D03*
X12250Y10750D03*
Y11750D03*
D12*
X17000Y9750D03*
X18000D03*
X750Y8750D03*
D13*
X1250Y1000D03*
X19250Y11750D03*
Y1000D03*
X1000Y6000D03*
X1250Y11750D03*
D15*
X3250Y6000D03*
X6250Y10750D03*
D16*
X16000Y9750D03*
X4750Y8750D03*
M02*
