G04*
G04 Format:               Gerber RS-274X*
G04 Layer:                BottomCopper*
G04 This File Name:       LCD Schematic.gbl*
G04 Source File Name:     LCD Schematic.rrb*
G04 Unique ID:            95888e2a-6d13-42d3-a865-246b4b79fe9a*
G04 Generated Date:       Sunday, 24 August 2025 11:43:30*
G04*
G04 Created Using:        Robot Room Copper Connection v2.7.5443*
G04 Software Contact:     http://www.robotroom.com/CopperConnection/Support.aspx*
G04 License Number:       1685*
G04 Student Edition:      true*
G04*
G04 Zero Suppression:     Leading*
G04 Number Precision:     2.4*
G04*
%FSLAX24Y24*%
%MOIN*%
%LNBottomCopper*%
%ADD10C,.012*%
%ADD11C,.025*%
%ADD12C,.056*%
%ADD13C,.065*%
%ADD14C,.075*%
%ADD15C,.16*%
%ADD16R,.006X.006*%
%ADD17R,.065X.065*%
%ADD18R,.075X.075*%
D10*
G01X12250Y11750D02*
X13500D01*
X9250Y10750D02*
Y6000D01*
X15250D02*
Y7500D01*
X13500Y11750D02*
X13750Y11500D01*
Y9500D01*
X14250Y6000D02*
Y7000D01*
X15250Y7500D02*
X13250Y9500D01*
X7250Y6000D02*
Y5500D01*
X7000Y5250D01*
X6000D01*
X13750Y9500D02*
X16250Y7000D01*
Y6000D01*
X13250D02*
Y7500D01*
X14250Y7000D02*
X11750Y9500D01*
X13250D02*
Y10500D01*
X13000Y10750D01*
X6000Y5250D02*
X5750Y5500D01*
Y7500D01*
X13000Y10750D02*
X12250D01*
X5750Y7500D02*
X7750Y9500D01*
Y11250D01*
X7250Y11750D01*
X12250Y6000D02*
Y8000D01*
X11750Y9500D02*
Y11250D01*
X13250Y7500D02*
X11250Y9500D01*
X11750Y11250D02*
X11250Y11750D01*
Y6000D02*
Y8500D01*
X12250Y8000D02*
X10750Y9500D01*
X11250D02*
Y10750D01*
X10250Y6000D02*
Y9000D01*
X10750Y9500D02*
Y11250D01*
X10250Y11750D01*
X11250Y8500D02*
X10250Y9500D01*
Y9000D02*
X9750Y9500D01*
X10250D02*
Y10750D01*
X8250D02*
Y9500D01*
X9750D02*
Y11250D01*
X9250Y11750D01*
X8250Y6000D02*
Y9000D01*
Y9500D02*
X6250Y7500D01*
X8250Y9000D02*
X8750Y9500D01*
X6250Y7500D02*
Y6000D01*
X8750Y9500D02*
Y11250D01*
X8250Y11750D01*
D11*
X18000Y9750D02*
Y10500D01*
X15000Y11750D02*
Y10500D01*
X18000D02*
X17500Y11000D01*
Y11750D01*
X15000Y10500D02*
X16000Y9750D01*
X17000Y3000D02*
X11750D01*
X11250Y4750D02*
X5500D01*
X5250Y5000D02*
Y6000D01*
X5500Y4750D02*
X5250Y5000D01*
X18000Y8500D02*
Y9750D01*
Y8500D02*
X17250Y7750D01*
Y6000D01*
X11250Y4750D02*
X11500Y4500D01*
Y3250D01*
X11750Y3000D01*
D12*
X2130Y3460D03*
X1130D03*
X14000Y4000D03*
X17000Y3000D03*
X19000Y4000D03*
X4960Y3480D03*
X3960D03*
X15000Y11750D03*
X17500D03*
X9750Y3750D03*
X7250D03*
D13*
X12250Y6000D03*
X4250D03*
X13250D03*
X5250D03*
X14250D03*
X6250D03*
X15250D03*
X7250D03*
X16250D03*
X8250D03*
X17250D03*
X9250D03*
X18250D03*
X10250D03*
X11250D03*
X6250Y11750D03*
X7250Y10750D03*
Y11750D03*
X8250Y10750D03*
Y11750D03*
X9250Y10750D03*
Y11750D03*
X10250Y10750D03*
Y11750D03*
X11250Y10750D03*
Y11750D03*
X12250Y10750D03*
Y11750D03*
D14*
X17000Y9750D03*
X18000D03*
X750Y8750D03*
D15*
X1250Y1000D03*
X19250Y11750D03*
Y1000D03*
X1000Y6000D03*
X1250Y11750D03*
D17*
X3250Y6000D03*
X6250Y10750D03*
D18*
X16000Y9750D03*
X4750Y8750D03*
M02*
