 0 
SECTION
 2 
HEADER
 9 
$ACADVER
 1 
AC1004
 9 
$EXTMIN
 10 
0.0
 20 
0.0
 9 
$EXTMAX
 10 
2.087
 20 
1.302
 9 
$LIMMIN
 10 
0.0
 20 
0.0
 9 
$LIMMAX
 10 
2.087
 20 
1.302
 9 
$INSBASE
 10 
0.0
 20 
0.0
 9 
$VIEWCTR
 10 
1.044
 20 
0.649
 9 
$VIEWSIZE
 40 
1.302
 9 
$ORTHOMODE
 70 
 0 
 9 
$REGENMODE
 70 
 1 
 9 
$FILLMODE
 70 
 1 
 9 
$QTEXTMODE
 70 
 0 
 9 
$DRAGMODE
 70 
 2 
 9 
$LTSCALE
 40 
1.0
 9 
$OSMODE
 70 
 0 
 9 
$ATTMODE
 70 
 1 
 9 
$TEXTSIZE
 40 
0.2
 9 
$TRACEWID
 40 
0.05
 9 
$TEXTSTYLE
 7 
STANDARD
 9 
$CLAYER
 8 
0
 9 
$CELTYPE
 6 
BYLAYER
 9 
$CECOLOR
 62 
 256 
 9 
$DIMSCALE
 40 
1.0
 9 
$DIMLFAC
 40 
1.0
 9 
$LUNITS
 70 
 2 
 9 
$LUPREC
 70 
 4 
 9 
$AXISMODE
 70 
 0 
 9 
$AXISUNIT
 10 
0.0
 20 
0.0
 9 
$SKETCHINC
 40 
0.1
 9 
$MENU
 1 
acad
 9 
$ELEVATION
 40 
0.0
 9 
$THICKNESS
 40 
0.0
 9 
$VIEWDIR
 10 
0.0
 20 
0.0
 30 
1.0
 9 
$LIMCHECK
 70 
 0 
 9 
$BLIPMODE
 70 
 1 
 9 
$FASTZOOM
 70 
 1 
 9 
$SKPOLY
 70 
 0 
 9 
$ANGBASE
 50 
0.0
 9 
$ANGDIR
 70 
 0 
 9 
$PDMODE
 70 
 0 
 9 
$PDSIZE
 40 
0.0
 9 
$PLINEWID
 40 
0.0
 9 
$COORDS
 70 
 0 
 9 
$ATTDIA
 70 
 0 
 9 
$ATTREQ
 70 
 1 
 0 
ENDSEC
 0 
SECTION
 2 
TABLES
 0 
TABLE
 2 
LTYPE
 70 
 10 
 0 
LTYPE
 2 
CONTINUOUS
 70 
 64 
 3 
Solid line
 72 
 65 
 73 
 0 
 40 
0.0
 0 
ENDTAB
 0 
TABLE
 2 
LAYER
 70 
 153 
 0 
LAYER
 2 
0
 70 
 64 
 62 
 7 
 6 
CONTINUOUS
 0 
ENDTAB
 0 
ENDSEC
 0 
SECTION
 2 
BLOCKS
 0 
ENDSEC
 0 
SECTION
 2 
ENTITIES
 0 
LINE
 8 
0
 62 
 7 
 10 
0.0
 20 
1.3
 11 
2.025
 21 
1.3
 0 
LINE
 8 
0
 62 
 7 
 10 
2.025
 20 
1.3
 11 
2.025
 21 
0.0
 0 
LINE
 8 
0
 62 
 7 
 10 
2.025
 20 
0.0
 11 
0.0
 21 
0.0
 0 
LINE
 8 
0
 62 
 7 
 10 
0.0
 20 
0.0
 11 
0.0
 21 
1.3
 0 
LINE
 8 
0
 62 
 7 
 10 
0.292
 20 
0.632
 11 
0.357
 21 
0.632
 0 
LINE
 8 
0
 62 
 7 
 10 
0.357
 20 
0.632
 11 
0.357
 21 
0.567
 0 
LINE
 8 
0
 62 
 7 
 10 
0.357
 20 
0.567
 11 
0.292
 21 
0.567
 0 
LINE
 8 
0
 62 
 7 
 10 
0.292
 20 
0.567
 11 
0.292
 21 
0.632
 0 
CIRCLE
 8 
0
 62 
 7 
 10 
0.325
 20 
0.6
 40 
0.018
 0 
CIRCLE
 8 
0
 62 
 7 
 10 
1.225
 20 
0.6
 40 
0.032
 0 
CIRCLE
 8 
0
 62 
 7 
 10 
1.225
 20 
0.6
 40 
0.018
 0 
CIRCLE
 8 
0
 62 
 7 
 10 
0.425
 20 
0.6
 40 
0.032
 0 
CIRCLE
 8 
0
 62 
 7 
 10 
0.425
 20 
0.6
 40 
0.018
 0 
CIRCLE
 8 
0
 62 
 7 
 10 
1.325
 20 
0.6
 40 
0.032
 0 
CIRCLE
 8 
0
 62 
 7 
 10 
1.325
 20 
0.6
 40 
0.018
 0 
CIRCLE
 8 
0
 62 
 7 
 10 
0.525
 20 
0.6
 40 
0.032
 0 
CIRCLE
 8 
0
 62 
 7 
 10 
0.525
 20 
0.6
 40 
0.018
 0 
CIRCLE
 8 
0
 62 
 7 
 10 
1.425
 20 
0.6
 40 
0.032
 0 
CIRCLE
 8 
0
 62 
 7 
 10 
1.425
 20 
0.6
 40 
0.018
 0 
CIRCLE
 8 
0
 62 
 7 
 10 
0.625
 20 
0.6
 40 
0.032
 0 
CIRCLE
 8 
0
 62 
 7 
 10 
0.625
 20 
0.6
 40 
0.018
 0 
CIRCLE
 8 
0
 62 
 7 
 10 
1.525
 20 
0.6
 40 
0.032
 0 
CIRCLE
 8 
0
 62 
 7 
 10 
1.525
 20 
0.6
 40 
0.018
 0 
CIRCLE
 8 
0
 62 
 7 
 10 
0.725
 20 
0.6
 40 
0.032
 0 
CIRCLE
 8 
0
 62 
 7 
 10 
0.725
 20 
0.6
 40 
0.018
 0 
CIRCLE
 8 
0
 62 
 7 
 10 
1.625
 20 
0.6
 40 
0.032
 0 
CIRCLE
 8 
0
 62 
 7 
 10 
1.625
 20 
0.6
 40 
0.018
 0 
CIRCLE
 8 
0
 62 
 7 
 10 
0.825
 20 
0.6
 40 
0.032
 0 
CIRCLE
 8 
0
 62 
 7 
 10 
0.825
 20 
0.6
 40 
0.018
 0 
CIRCLE
 8 
0
 62 
 7 
 10 
1.725
 20 
0.6
 40 
0.032
 0 
CIRCLE
 8 
0
 62 
 7 
 10 
1.725
 20 
0.6
 40 
0.018
 0 
CIRCLE
 8 
0
 62 
 7 
 10 
0.925
 20 
0.6
 40 
0.032
 0 
CIRCLE
 8 
0
 62 
 7 
 10 
0.925
 20 
0.6
 40 
0.018
 0 
CIRCLE
 8 
0
 62 
 7 
 10 
1.825
 20 
0.6
 40 
0.032
 0 
CIRCLE
 8 
0
 62 
 7 
 10 
1.825
 20 
0.6
 40 
0.018
 0 
CIRCLE
 8 
0
 62 
 7 
 10 
1.025
 20 
0.6
 40 
0.032
 0 
CIRCLE
 8 
0
 62 
 7 
 10 
1.025
 20 
0.6
 40 
0.018
 0 
CIRCLE
 8 
0
 62 
 7 
 10 
1.125
 20 
0.6
 40 
0.032
 0 
CIRCLE
 8 
0
 62 
 7 
 10 
1.125
 20 
0.6
 40 
0.018
 0 
CIRCLE
 8 
0
 62 
 7 
 10 
0.125
 20 
0.1
 40 
0.08
 0 
CIRCLE
 8 
0
 62 
 7 
 10 
0.125
 20 
0.1
 40 
0.062
 0 
CIRCLE
 8 
0
 62 
 7 
 10 
1.925
 20 
1.175
 40 
0.08
 0 
CIRCLE
 8 
0
 62 
 7 
 10 
1.925
 20 
1.175
 40 
0.062
 0 
CIRCLE
 8 
0
 62 
 7 
 10 
0.375
 20 
0.35
 40 
0.028
 0 
CIRCLE
 8 
0
 62 
 7 
 10 
0.375
 20 
0.35
 40 
0.014
 0 
CIRCLE
 8 
0
 62 
 7 
 10 
0.275
 20 
0.35
 40 
0.028
 0 
CIRCLE
 8 
0
 62 
 7 
 10 
0.275
 20 
0.35
 40 
0.014
 0 
CIRCLE
 8 
0
 62 
 7 
 10 
1.4
 20 
0.4
 40 
0.028
 0 
CIRCLE
 8 
0
 62 
 7 
 10 
1.4
 20 
0.4
 40 
0.014
 0 
CIRCLE
 8 
0
 62 
 7 
 10 
1.7
 20 
0.3
 40 
0.028
 0 
CIRCLE
 8 
0
 62 
 7 
 10 
1.7
 20 
0.3
 40 
0.014
 0 
CIRCLE
 8 
0
 62 
 7 
 10 
1.9
 20 
0.4
 40 
0.028
 0 
CIRCLE
 8 
0
 62 
 7 
 10 
1.9
 20 
0.4
 40 
0.014
 0 
LINE
 8 
0
 62 
 7 
 10 
0.425
 20 
0.38
 11 
0.425
 21 
0.32
 0 
LINE
 8 
0
 62 
 7 
 10 
0.425
 20 
0.32
 11 
0.405
 21 
0.3
 0 
LINE
 8 
0
 62 
 7 
 10 
0.652
 20 
0.213
 11 
0.622
 21 
0.213
 0 
LINE
 8 
0
 62 
 7 
 10 
0.622
 20 
0.213
 11 
0.622
 21 
0.168
 0 
LINE
 8 
0
 62 
 7 
 10 
0.622
 20 
0.191
 11 
0.644
 21 
0.191
 0 
LINE
 8 
0
 62 
 7 
 10 
0.682
 20 
0.213
 11 
0.682
 21 
0.205
 0 
LINE
 8 
0
 62 
 7 
 10 
0.674
 20 
0.168
 11 
0.69
 21 
0.168
 0 
LINE
 8 
0
 62 
 7 
 10 
0.674
 20 
0.191
 11 
0.682
 21 
0.191
 0 
LINE
 8 
0
 62 
 7 
 10 
0.682
 20 
0.191
 11 
0.682
 21 
0.168
 0 
LINE
 8 
0
 62 
 7 
 10 
0.742
 20 
0.191
 11 
0.734
 21 
0.198
 0 
LINE
 8 
0
 62 
 7 
 10 
0.734
 20 
0.198
 11 
0.72
 21 
0.198
 0 
LINE
 8 
0
 62 
 7 
 10 
0.72
 20 
0.198
 11 
0.712
 21 
0.191
 0 
LINE
 8 
0
 62 
 7 
 10 
0.712
 20 
0.191
 11 
0.712
 21 
0.175
 0 
LINE
 8 
0
 62 
 7 
 10 
0.712
 20 
0.175
 11 
0.72
 21 
0.168
 0 
LINE
 8 
0
 62 
 7 
 10 
0.72
 20 
0.168
 11 
0.727
 21 
0.168
 0 
LINE
 8 
0
 62 
 7 
 10 
0.727
 20 
0.168
 11 
0.742
 21 
0.183
 0 
LINE
 8 
0
 62 
 7 
 10 
0.742
 20 
0.198
 11 
0.742
 21 
0.161
 0 
LINE
 8 
0
 62 
 7 
 10 
0.742
 20 
0.161
 11 
0.734
 21 
0.153
 0 
LINE
 8 
0
 62 
 7 
 10 
0.734
 20 
0.153
 11 
0.712
 21 
0.153
 0 
LINE
 8 
0
 62 
 7 
 10 
0.757
 20 
0.213
 11 
0.787
 21 
0.213
 0 
LINE
 8 
0
 62 
 7 
 10 
0.772
 20 
0.213
 11 
0.772
 21 
0.168
 0 
LINE
 8 
0
 62 
 7 
 10 
0.802
 20 
0.198
 11 
0.802
 21 
0.168
 0 
LINE
 8 
0
 62 
 7 
 10 
0.802
 20 
0.183
 11 
0.817
 21 
0.198
 0 
LINE
 8 
0
 62 
 7 
 10 
0.817
 20 
0.198
 11 
0.824
 21 
0.198
 0 
LINE
 8 
0
 62 
 7 
 10 
0.824
 20 
0.198
 11 
0.832
 21 
0.191
 0 
LINE
 8 
0
 62 
 7 
 10 
0.877
 20 
0.191
 11 
0.87
 21 
0.198
 0 
LINE
 8 
0
 62 
 7 
 10 
0.87
 20 
0.198
 11 
0.854
 21 
0.198
 0 
LINE
 8 
0
 62 
 7 
 10 
0.854
 20 
0.198
 11 
0.847
 21 
0.191
 0 
LINE
 8 
0
 62 
 7 
 10 
0.847
 20 
0.191
 11 
0.847
 21 
0.175
 0 
LINE
 8 
0
 62 
 7 
 10 
0.847
 20 
0.175
 11 
0.854
 21 
0.168
 0 
LINE
 8 
0
 62 
 7 
 10 
0.854
 20 
0.168
 11 
0.87
 21 
0.168
 0 
LINE
 8 
0
 62 
 7 
 10 
0.87
 20 
0.168
 11 
0.877
 21 
0.175
 0 
LINE
 8 
0
 62 
 7 
 10 
0.877
 20 
0.175
 11 
0.877
 21 
0.191
 0 
LINE
 8 
0
 62 
 7 
 10 
0.892
 20 
0.198
 11 
0.892
 21 
0.168
 0 
LINE
 8 
0
 62 
 7 
 10 
0.892
 20 
0.183
 11 
0.907
 21 
0.198
 0 
LINE
 8 
0
 62 
 7 
 10 
0.907
 20 
0.198
 11 
0.914
 21 
0.198
 0 
LINE
 8 
0
 62 
 7 
 10 
0.914
 20 
0.198
 11 
0.922
 21 
0.191
 0 
LINE
 8 
0
 62 
 7 
 10 
0.922
 20 
0.191
 11 
0.922
 21 
0.168
 0 
LINE
 8 
0
 62 
 7 
 10 
0.952
 20 
0.213
 11 
0.952
 21 
0.205
 0 
LINE
 8 
0
 62 
 7 
 10 
0.944
 20 
0.168
 11 
0.96
 21 
0.168
 0 
LINE
 8 
0
 62 
 7 
 10 
0.944
 20 
0.191
 11 
0.952
 21 
0.191
 0 
LINE
 8 
0
 62 
 7 
 10 
0.952
 20 
0.191
 11 
0.952
 21 
0.168
 0 
LINE
 8 
0
 62 
 7 
 10 
0.982
 20 
0.213
 11 
0.982
 21 
0.205
 0 
LINE
 8 
0
 62 
 7 
 10 
0.982
 20 
0.205
 11 
1.012
 21 
0.175
 0 
LINE
 8 
0
 62 
 7 
 10 
1.012
 20 
0.175
 11 
1.012
 21 
0.168
 0 
LINE
 8 
0
 62 
 7 
 10 
1.012
 20 
0.213
 11 
1.012
 21 
0.205
 0 
LINE
 8 
0
 62 
 7 
 10 
1.012
 20 
0.205
 11 
0.982
 21 
0.175
 0 
LINE
 8 
0
 62 
 7 
 10 
0.982
 20 
0.175
 11 
0.982
 21 
0.168
 0 
LINE
 8 
0
 62 
 7 
 10 
1.072
 20 
0.191
 11 
1.102
 21 
0.191
 0 
LINE
 8 
0
 62 
 7 
 10 
1.162
 20 
0.205
 11 
1.17
 21 
0.213
 0 
LINE
 8 
0
 62 
 7 
 10 
1.17
 20 
0.213
 11 
1.184
 21 
0.213
 0 
LINE
 8 
0
 62 
 7 
 10 
1.184
 20 
0.213
 11 
1.192
 21 
0.205
 0 
LINE
 8 
0
 62 
 7 
 10 
1.192
 20 
0.205
 11 
1.192
 21 
0.198
 0 
LINE
 8 
0
 62 
 7 
 10 
1.192
 20 
0.198
 11 
1.184
 21 
0.191
 0 
LINE
 8 
0
 62 
 7 
 10 
1.184
 20 
0.191
 11 
1.17
 21 
0.191
 0 
LINE
 8 
0
 62 
 7 
 10 
1.17
 20 
0.191
 11 
1.162
 21 
0.183
 0 
LINE
 8 
0
 62 
 7 
 10 
1.162
 20 
0.183
 11 
1.162
 21 
0.168
 0 
LINE
 8 
0
 62 
 7 
 10 
1.162
 20 
0.168
 11 
1.192
 21 
0.168
 0 
LINE
 8 
0
 62 
 7 
 10 
1.207
 20 
0.175
 11 
1.207
 21 
0.205
 0 
LINE
 8 
0
 62 
 7 
 10 
1.207
 20 
0.205
 11 
1.214
 21 
0.213
 0 
LINE
 8 
0
 62 
 7 
 10 
1.214
 20 
0.213
 11 
1.23
 21 
0.213
 0 
LINE
 8 
0
 62 
 7 
 10 
1.23
 20 
0.213
 11 
1.237
 21 
0.205
 0 
LINE
 8 
0
 62 
 7 
 10 
1.237
 20 
0.205
 11 
1.237
 21 
0.175
 0 
LINE
 8 
0
 62 
 7 
 10 
1.237
 20 
0.175
 11 
1.23
 21 
0.168
 0 
LINE
 8 
0
 62 
 7 
 10 
1.23
 20 
0.168
 11 
1.214
 21 
0.168
 0 
LINE
 8 
0
 62 
 7 
 10 
1.214
 20 
0.168
 11 
1.207
 21 
0.175
 0 
LINE
 8 
0
 62 
 7 
 10 
1.207
 20 
0.175
 11 
1.237
 21 
0.205
 0 
LINE
 8 
0
 62 
 7 
 10 
1.252
 20 
0.205
 11 
1.26
 21 
0.213
 0 
LINE
 8 
0
 62 
 7 
 10 
1.26
 20 
0.213
 11 
1.274
 21 
0.213
 0 
LINE
 8 
0
 62 
 7 
 10 
1.274
 20 
0.213
 11 
1.282
 21 
0.205
 0 
LINE
 8 
0
 62 
 7 
 10 
1.282
 20 
0.205
 11 
1.282
 21 
0.198
 0 
LINE
 8 
0
 62 
 7 
 10 
1.282
 20 
0.198
 11 
1.274
 21 
0.191
 0 
LINE
 8 
0
 62 
 7 
 10 
1.274
 20 
0.191
 11 
1.26
 21 
0.191
 0 
LINE
 8 
0
 62 
 7 
 10 
1.26
 20 
0.191
 11 
1.252
 21 
0.183
 0 
LINE
 8 
0
 62 
 7 
 10 
1.252
 20 
0.183
 11 
1.252
 21 
0.168
 0 
LINE
 8 
0
 62 
 7 
 10 
1.252
 20 
0.168
 11 
1.282
 21 
0.168
 0 
LINE
 8 
0
 62 
 7 
 10 
1.327
 20 
0.213
 11 
1.297
 21 
0.213
 0 
LINE
 8 
0
 62 
 7 
 10 
1.297
 20 
0.213
 11 
1.297
 21 
0.198
 0 
LINE
 8 
0
 62 
 7 
 10 
1.297
 20 
0.198
 11 
1.32
 21 
0.198
 0 
LINE
 8 
0
 62 
 7 
 10 
1.32
 20 
0.198
 11 
1.327
 21 
0.191
 0 
LINE
 8 
0
 62 
 7 
 10 
1.327
 20 
0.191
 11 
1.327
 21 
0.175
 0 
LINE
 8 
0
 62 
 7 
 10 
1.327
 20 
0.175
 11 
1.32
 21 
0.168
 0 
LINE
 8 
0
 62 
 7 
 10 
1.32
 20 
0.168
 11 
1.304
 21 
0.168
 0 
LINE
 8 
0
 62 
 7 
 10 
1.304
 20 
0.168
 11 
1.297
 21 
0.175
 0 
LINE
 8 
0
 62 
 7 
 10 
0.46
 20 
0.11
 11 
0.46
 21 
0.04
 0 
LINE
 8 
0
 62 
 7 
 10 
0.46
 20 
0.04
 11 
0.507
 21 
0.04
 0 
LINE
 8 
0
 62 
 7 
 10 
0.577
 20 
0.098
 11 
0.565
 21 
0.11
 0 
LINE
 8 
0
 62 
 7 
 10 
0.565
 20 
0.11
 11 
0.542
 21 
0.11
 0 
LINE
 8 
0
 62 
 7 
 10 
0.542
 20 
0.11
 11 
0.53
 21 
0.098
 0 
LINE
 8 
0
 62 
 7 
 10 
0.53
 20 
0.098
 11 
0.53
 21 
0.052
 0 
LINE
 8 
0
 62 
 7 
 10 
0.53
 20 
0.052
 11 
0.542
 21 
0.04
 0 
LINE
 8 
0
 62 
 7 
 10 
0.542
 20 
0.04
 11 
0.565
 21 
0.04
 0 
LINE
 8 
0
 62 
 7 
 10 
0.565
 20 
0.04
 11 
0.577
 21 
0.052
 0 
LINE
 8 
0
 62 
 7 
 10 
0.6
 20 
0.11
 11 
0.635
 21 
0.11
 0 
LINE
 8 
0
 62 
 7 
 10 
0.635
 20 
0.11
 11 
0.647
 21 
0.098
 0 
LINE
 8 
0
 62 
 7 
 10 
0.647
 20 
0.098
 11 
0.647
 21 
0.052
 0 
LINE
 8 
0
 62 
 7 
 10 
0.647
 20 
0.052
 11 
0.635
 21 
0.04
 0 
LINE
 8 
0
 62 
 7 
 10 
0.635
 20 
0.04
 11 
0.6
 21 
0.04
 0 
LINE
 8 
0
 62 
 7 
 10 
0.612
 20 
0.11
 11 
0.612
 21 
0.04
 0 
LINE
 8 
0
 62 
 7 
 10 
0.682
 20 
0.098
 11 
0.693
 21 
0.11
 0 
LINE
 8 
0
 62 
 7 
 10 
0.693
 20 
0.11
 11 
0.693
 21 
0.04
 0 
LINE
 8 
0
 62 
 7 
 10 
0.682
 20 
0.04
 11 
0.705
 21 
0.04
 0 
LINE
 8 
0
 62 
 7 
 10 
0.775
 20 
0.11
 11 
0.763
 21 
0.11
 0 
LINE
 8 
0
 62 
 7 
 10 
0.763
 20 
0.11
 11 
0.74
 21 
0.087
 0 
LINE
 8 
0
 62 
 7 
 10 
0.74
 20 
0.087
 11 
0.74
 21 
0.052
 0 
LINE
 8 
0
 62 
 7 
 10 
0.74
 20 
0.052
 11 
0.752
 21 
0.04
 0 
LINE
 8 
0
 62 
 7 
 10 
0.752
 20 
0.04
 11 
0.775
 21 
0.04
 0 
LINE
 8 
0
 62 
 7 
 10 
0.775
 20 
0.04
 11 
0.787
 21 
0.052
 0 
LINE
 8 
0
 62 
 7 
 10 
0.787
 20 
0.052
 11 
0.787
 21 
0.063
 0 
LINE
 8 
0
 62 
 7 
 10 
0.787
 20 
0.063
 11 
0.775
 21 
0.075
 0 
LINE
 8 
0
 62 
 7 
 10 
0.775
 20 
0.075
 11 
0.752
 21 
0.075
 0 
LINE
 8 
0
 62 
 7 
 10 
0.752
 20 
0.075
 11 
0.74
 21 
0.063
 0 
LINE
 8 
0
 62 
 7 
 10 
0.81
 20 
0.052
 11 
0.81
 21 
0.098
 0 
LINE
 8 
0
 62 
 7 
 10 
0.81
 20 
0.098
 11 
0.822
 21 
0.11
 0 
LINE
 8 
0
 62 
 7 
 10 
0.822
 20 
0.11
 11 
0.845
 21 
0.11
 0 
LINE
 8 
0
 62 
 7 
 10 
0.845
 20 
0.11
 11 
0.857
 21 
0.098
 0 
LINE
 8 
0
 62 
 7 
 10 
0.857
 20 
0.098
 11 
0.857
 21 
0.052
 0 
LINE
 8 
0
 62 
 7 
 10 
0.857
 20 
0.052
 11 
0.845
 21 
0.04
 0 
LINE
 8 
0
 62 
 7 
 10 
0.845
 20 
0.04
 11 
0.822
 21 
0.04
 0 
LINE
 8 
0
 62 
 7 
 10 
0.822
 20 
0.04
 11 
0.81
 21 
0.052
 0 
LINE
 8 
0
 62 
 7 
 10 
0.81
 20 
0.052
 11 
0.857
 21 
0.098
 0 
LINE
 8 
0
 62 
 7 
 10 
0.88
 20 
0.098
 11 
0.892
 21 
0.11
 0 
LINE
 8 
0
 62 
 7 
 10 
0.892
 20 
0.11
 11 
0.915
 21 
0.11
 0 
LINE
 8 
0
 62 
 7 
 10 
0.915
 20 
0.11
 11 
0.927
 21 
0.098
 0 
LINE
 8 
0
 62 
 7 
 10 
0.927
 20 
0.098
 11 
0.927
 21 
0.087
 0 
LINE
 8 
0
 62 
 7 
 10 
0.927
 20 
0.087
 11 
0.915
 21 
0.075
 0 
LINE
 8 
0
 62 
 7 
 10 
0.915
 20 
0.075
 11 
0.892
 21 
0.075
 0 
LINE
 8 
0
 62 
 7 
 10 
0.892
 20 
0.075
 11 
0.88
 21 
0.063
 0 
LINE
 8 
0
 62 
 7 
 10 
0.88
 20 
0.063
 11 
0.88
 21 
0.04
 0 
LINE
 8 
0
 62 
 7 
 10 
0.88
 20 
0.04
 11 
0.927
 21 
0.04
 0 
LINE
 8 
0
 62 
 7 
 10 
1.02
 20 
0.11
 11 
1.055
 21 
0.11
 0 
LINE
 8 
0
 62 
 7 
 10 
1.055
 20 
0.11
 11 
1.067
 21 
0.098
 0 
LINE
 8 
0
 62 
 7 
 10 
1.067
 20 
0.098
 11 
1.067
 21 
0.087
 0 
LINE
 8 
0
 62 
 7 
 10 
1.067
 20 
0.087
 11 
1.055
 21 
0.075
 0 
LINE
 8 
0
 62 
 7 
 10 
1.055
 20 
0.075
 11 
1.067
 21 
0.063
 0 
LINE
 8 
0
 62 
 7 
 10 
1.067
 20 
0.063
 11 
1.067
 21 
0.052
 0 
LINE
 8 
0
 62 
 7 
 10 
1.067
 20 
0.052
 11 
1.055
 21 
0.04
 0 
LINE
 8 
0
 62 
 7 
 10 
1.055
 20 
0.04
 11 
1.02
 21 
0.04
 0 
LINE
 8 
0
 62 
 7 
 10 
1.032
 20 
0.11
 11 
1.032
 21 
0.04
 0 
LINE
 8 
0
 62 
 7 
 10 
1.032
 20 
0.075
 11 
1.055
 21 
0.075
 0 
LINE
 8 
0
 62 
 7 
 10 
1.09
 20 
0.087
 11 
1.09
 21 
0.04
 0 
LINE
 8 
0
 62 
 7 
 10 
1.09
 20 
0.063
 11 
1.113
 21 
0.087
 0 
LINE
 8 
0
 62 
 7 
 10 
1.113
 20 
0.087
 11 
1.125
 21 
0.087
 0 
LINE
 8 
0
 62 
 7 
 10 
1.125
 20 
0.087
 11 
1.137
 21 
0.075
 0 
LINE
 8 
0
 62 
 7 
 10 
1.16
 20 
0.063
 11 
1.207
 21 
0.063
 0 
LINE
 8 
0
 62 
 7 
 10 
1.207
 20 
0.063
 11 
1.207
 21 
0.075
 0 
LINE
 8 
0
 62 
 7 
 10 
1.207
 20 
0.075
 11 
1.195
 21 
0.087
 0 
LINE
 8 
0
 62 
 7 
 10 
1.195
 20 
0.087
 11 
1.172
 21 
0.087
 0 
LINE
 8 
0
 62 
 7 
 10 
1.172
 20 
0.087
 11 
1.16
 21 
0.075
 0 
LINE
 8 
0
 62 
 7 
 10 
1.16
 20 
0.075
 11 
1.16
 21 
0.052
 0 
LINE
 8 
0
 62 
 7 
 10 
1.16
 20 
0.052
 11 
1.172
 21 
0.04
 0 
LINE
 8 
0
 62 
 7 
 10 
1.172
 20 
0.04
 11 
1.195
 21 
0.04
 0 
LINE
 8 
0
 62 
 7 
 10 
1.242
 20 
0.087
 11 
1.265
 21 
0.087
 0 
LINE
 8 
0
 62 
 7 
 10 
1.265
 20 
0.087
 11 
1.277
 21 
0.075
 0 
LINE
 8 
0
 62 
 7 
 10 
1.277
 20 
0.075
 11 
1.277
 21 
0.04
 0 
LINE
 8 
0
 62 
 7 
 10 
1.277
 20 
0.063
 11 
1.242
 21 
0.063
 0 
LINE
 8 
0
 62 
 7 
 10 
1.242
 20 
0.063
 11 
1.23
 21 
0.052
 0 
LINE
 8 
0
 62 
 7 
 10 
1.23
 20 
0.052
 11 
1.242
 21 
0.04
 0 
LINE
 8 
0
 62 
 7 
 10 
1.242
 20 
0.04
 11 
1.265
 21 
0.04
 0 
LINE
 8 
0
 62 
 7 
 10 
1.265
 20 
0.04
 11 
1.277
 21 
0.052
 0 
LINE
 8 
0
 62 
 7 
 10 
1.3
 20 
0.11
 11 
1.312
 21 
0.11
 0 
LINE
 8 
0
 62 
 7 
 10 
1.312
 20 
0.11
 11 
1.312
 21 
0.04
 0 
LINE
 8 
0
 62 
 7 
 10 
1.347
 20 
0.087
 11 
1.323
 21 
0.063
 0 
LINE
 8 
0
 62 
 7 
 10 
1.323
 20 
0.063
 11 
1.347
 21 
0.04
 0 
LINE
 8 
0
 62 
 7 
 10 
1.312
 20 
0.063
 11 
1.323
 21 
0.063
 0 
LINE
 8 
0
 62 
 7 
 10 
1.417
 20 
0.075
 11 
1.405
 21 
0.087
 0 
LINE
 8 
0
 62 
 7 
 10 
1.405
 20 
0.087
 11 
1.382
 21 
0.087
 0 
LINE
 8 
0
 62 
 7 
 10 
1.382
 20 
0.087
 11 
1.37
 21 
0.075
 0 
LINE
 8 
0
 62 
 7 
 10 
1.37
 20 
0.075
 11 
1.37
 21 
0.052
 0 
LINE
 8 
0
 62 
 7 
 10 
1.37
 20 
0.052
 11 
1.382
 21 
0.04
 0 
LINE
 8 
0
 62 
 7 
 10 
1.382
 20 
0.04
 11 
1.405
 21 
0.04
 0 
LINE
 8 
0
 62 
 7 
 10 
1.405
 20 
0.04
 11 
1.417
 21 
0.052
 0 
LINE
 8 
0
 62 
 7 
 10 
1.417
 20 
0.052
 11 
1.417
 21 
0.075
 0 
LINE
 8 
0
 62 
 7 
 10 
1.44
 20 
0.087
 11 
1.44
 21 
0.052
 0 
LINE
 8 
0
 62 
 7 
 10 
1.44
 20 
0.052
 11 
1.452
 21 
0.04
 0 
LINE
 8 
0
 62 
 7 
 10 
1.452
 20 
0.04
 11 
1.463
 21 
0.04
 0 
LINE
 8 
0
 62 
 7 
 10 
1.463
 20 
0.04
 11 
1.487
 21 
0.063
 0 
LINE
 8 
0
 62 
 7 
 10 
1.487
 20 
0.087
 11 
1.487
 21 
0.04
 0 
LINE
 8 
0
 62 
 7 
 10 
1.522
 20 
0.11
 11 
1.522
 21 
0.052
 0 
LINE
 8 
0
 62 
 7 
 10 
1.522
 20 
0.052
 11 
1.533
 21 
0.04
 0 
LINE
 8 
0
 62 
 7 
 10 
1.533
 20 
0.04
 11 
1.545
 21 
0.04
 0 
LINE
 8 
0
 62 
 7 
 10 
1.545
 20 
0.04
 11 
1.557
 21 
0.052
 0 
LINE
 8 
0
 62 
 7 
 10 
1.51
 20 
0.087
 11 
1.545
 21 
0.087
 0 
LINE
 8 
0
 62 
 7 
 10 
0.405
 20 
0.3
 11 
0.245
 21 
0.3
 0 
LINE
 8 
0
 62 
 7 
 10 
0.245
 20 
0.3
 11 
0.225
 21 
0.32
 0 
LINE
 8 
0
 62 
 7 
 10 
0.225
 20 
0.32
 11 
0.225
 21 
0.38
 0 
CIRCLE
 8 
0
 62 
 7 
 10 
1.925
 20 
0.1
 40 
0.08
 0 
CIRCLE
 8 
0
 62 
 7 
 10 
1.925
 20 
0.1
 40 
0.062
 0 
LINE
 8 
0
 62 
 7 
 10 
0.156
 20 
0.794
 11 
0.163
 21 
0.8
 0 
LINE
 8 
0
 62 
 7 
 10 
0.163
 20 
0.8
 11 
0.163
 21 
0.762
 0 
LINE
 8 
0
 62 
 7 
 10 
0.156
 20 
0.762
 11 
0.169
 21 
0.762
 0 
LINE
 8 
0
 62 
 7 
 10 
0.188
 20 
0.762
 11 
0.188
 21 
0.8
 0 
LINE
 8 
0
 62 
 7 
 10 
0.188
 20 
0.8
 11 
0.213
 21 
0.775
 0 
LINE
 8 
0
 62 
 7 
 10 
0.213
 20 
0.8
 11 
0.213
 21 
0.762
 0 
LINE
 8 
0
 62 
 7 
 10 
0.251
 20 
0.775
 11 
0.226
 21 
0.775
 0 
LINE
 8 
0
 62 
 7 
 10 
0.226
 20 
0.775
 11 
0.226
 21 
0.781
 0 
LINE
 8 
0
 62 
 7 
 10 
0.226
 20 
0.781
 11 
0.245
 21 
0.8
 0 
LINE
 8 
0
 62 
 7 
 10 
0.245
 20 
0.8
 11 
0.245
 21 
0.762
 0 
LINE
 8 
0
 62 
 7 
 10 
0.264
 20 
0.768
 11 
0.264
 21 
0.794
 0 
LINE
 8 
0
 62 
 7 
 10 
0.264
 20 
0.794
 11 
0.27
 21 
0.8
 0 
LINE
 8 
0
 62 
 7 
 10 
0.27
 20 
0.8
 11 
0.283
 21 
0.8
 0 
LINE
 8 
0
 62 
 7 
 10 
0.283
 20 
0.8
 11 
0.289
 21 
0.794
 0 
LINE
 8 
0
 62 
 7 
 10 
0.289
 20 
0.794
 11 
0.289
 21 
0.768
 0 
LINE
 8 
0
 62 
 7 
 10 
0.289
 20 
0.768
 11 
0.283
 21 
0.762
 0 
LINE
 8 
0
 62 
 7 
 10 
0.283
 20 
0.762
 11 
0.27
 21 
0.762
 0 
LINE
 8 
0
 62 
 7 
 10 
0.27
 20 
0.762
 11 
0.264
 21 
0.768
 0 
LINE
 8 
0
 62 
 7 
 10 
0.264
 20 
0.768
 11 
0.289
 21 
0.794
 0 
LINE
 8 
0
 62 
 7 
 10 
0.302
 20 
0.768
 11 
0.302
 21 
0.794
 0 
LINE
 8 
0
 62 
 7 
 10 
0.302
 20 
0.794
 11 
0.308
 21 
0.8
 0 
LINE
 8 
0
 62 
 7 
 10 
0.308
 20 
0.8
 11 
0.321
 21 
0.8
 0 
LINE
 8 
0
 62 
 7 
 10 
0.321
 20 
0.8
 11 
0.327
 21 
0.794
 0 
LINE
 8 
0
 62 
 7 
 10 
0.327
 20 
0.794
 11 
0.327
 21 
0.768
 0 
LINE
 8 
0
 62 
 7 
 10 
0.327
 20 
0.768
 11 
0.321
 21 
0.762
 0 
LINE
 8 
0
 62 
 7 
 10 
0.321
 20 
0.762
 11 
0.308
 21 
0.762
 0 
LINE
 8 
0
 62 
 7 
 10 
0.308
 20 
0.762
 11 
0.302
 21 
0.768
 0 
LINE
 8 
0
 62 
 7 
 10 
0.302
 20 
0.768
 11 
0.327
 21 
0.794
 0 
LINE
 8 
0
 62 
 7 
 10 
0.346
 20 
0.794
 11 
0.353
 21 
0.8
 0 
LINE
 8 
0
 62 
 7 
 10 
0.353
 20 
0.8
 11 
0.353
 21 
0.762
 0 
LINE
 8 
0
 62 
 7 
 10 
0.346
 20 
0.762
 11 
0.359
 21 
0.762
 0 
LINE
 8 
0
 62 
 7 
 10 
0.231
 20 
0.269
 11 
0.238
 21 
0.275
 0 
LINE
 8 
0
 62 
 7 
 10 
0.238
 20 
0.275
 11 
0.238
 21 
0.237
 0 
LINE
 8 
0
 62 
 7 
 10 
0.231
 20 
0.237
 11 
0.244
 21 
0.237
 0 
LINE
 8 
0
 62 
 7 
 10 
0.263
 20 
0.243
 11 
0.263
 21 
0.269
 0 
LINE
 8 
0
 62 
 7 
 10 
0.263
 20 
0.269
 11 
0.269
 21 
0.275
 0 
LINE
 8 
0
 62 
 7 
 10 
0.269
 20 
0.275
 11 
0.282
 21 
0.275
 0 
LINE
 8 
0
 62 
 7 
 10 
0.282
 20 
0.275
 11 
0.288
 21 
0.269
 0 
LINE
 8 
0
 62 
 7 
 10 
0.288
 20 
0.269
 11 
0.288
 21 
0.243
 0 
LINE
 8 
0
 62 
 7 
 10 
0.288
 20 
0.243
 11 
0.282
 21 
0.237
 0 
LINE
 8 
0
 62 
 7 
 10 
0.282
 20 
0.237
 11 
0.269
 21 
0.237
 0 
LINE
 8 
0
 62 
 7 
 10 
0.269
 20 
0.237
 11 
0.263
 21 
0.243
 0 
LINE
 8 
0
 62 
 7 
 10 
0.263
 20 
0.243
 11 
0.288
 21 
0.269
 0 
LINE
 8 
0
 62 
 7 
 10 
0.301
 20 
0.262
 11 
0.301
 21 
0.243
 0 
LINE
 8 
0
 62 
 7 
 10 
0.301
 20 
0.243
 11 
0.307
 21 
0.237
 0 
LINE
 8 
0
 62 
 7 
 10 
0.307
 20 
0.237
 11 
0.314
 21 
0.237
 0 
LINE
 8 
0
 62 
 7 
 10 
0.314
 20 
0.237
 11 
0.326
 21 
0.25
 0 
LINE
 8 
0
 62 
 7 
 10 
0.326
 20 
0.262
 11 
0.326
 21 
0.237
 0 
LINE
 8 
0
 62 
 7 
 10 
0.364
 20 
0.269
 11 
0.358
 21 
0.275
 0 
LINE
 8 
0
 62 
 7 
 10 
0.358
 20 
0.275
 11 
0.352
 21 
0.269
 0 
LINE
 8 
0
 62 
 7 
 10 
0.352
 20 
0.269
 11 
0.352
 21 
0.237
 0 
LINE
 8 
0
 62 
 7 
 10 
0.345
 20 
0.256
 11 
0.358
 21 
0.256
 0 
LINE
 8 
0
 62 
 7 
 10 
0.345
 20 
0.237
 11 
0.358
 21 
0.237
 0 
LINE
 8 
0
 62 
 7 
 10 
0.225
 20 
0.38
 11 
0.245
 21 
0.4
 0 
LINE
 8 
0
 62 
 7 
 10 
1.562
 20 
1.012
 11 
1.637
 21 
1.012
 0 
LINE
 8 
0
 62 
 7 
 10 
1.637
 20 
1.012
 11 
1.637
 21 
0.937
 0 
LINE
 8 
0
 62 
 7 
 10 
1.637
 20 
0.937
 11 
1.562
 21 
0.937
 0 
LINE
 8 
0
 62 
 7 
 10 
1.562
 20 
0.937
 11 
1.562
 21 
1.012
 0 
CIRCLE
 8 
0
 62 
 7 
 10 
1.6
 20 
0.975
 40 
0.02
 0 
CIRCLE
 8 
0
 62 
 7 
 10 
1.7
 20 
0.975
 40 
0.038
 0 
CIRCLE
 8 
0
 62 
 7 
 10 
1.7
 20 
0.975
 40 
0.02
 0 
CIRCLE
 8 
0
 62 
 7 
 10 
1.8
 20 
0.975
 40 
0.038
 0 
CIRCLE
 8 
0
 62 
 7 
 10 
1.8
 20 
0.975
 40 
0.02
 0 
LINE
 8 
0
 62 
 7 
 10 
0.617
 20 
0.873
 11 
0.617
 21 
0.92
 0 
LINE
 8 
0
 62 
 7 
 10 
0.245
 20 
0.4
 11 
0.405
 21 
0.4
 0 
LINE
 8 
0
 62 
 7 
 10 
0.631
 20 
0.269
 11 
0.638
 21 
0.275
 0 
LINE
 8 
0
 62 
 7 
 10 
0.638
 20 
0.275
 11 
0.638
 21 
0.237
 0 
LINE
 8 
0
 62 
 7 
 10 
0.631
 20 
0.237
 11 
0.644
 21 
0.237
 0 
LINE
 8 
0
 62 
 7 
 10 
0.663
 20 
0.243
 11 
0.663
 21 
0.269
 0 
LINE
 8 
0
 62 
 7 
 10 
0.663
 20 
0.269
 11 
0.669
 21 
0.275
 0 
LINE
 8 
0
 62 
 7 
 10 
0.669
 20 
0.275
 11 
0.682
 21 
0.275
 0 
LINE
 8 
0
 62 
 7 
 10 
0.682
 20 
0.275
 11 
0.688
 21 
0.269
 0 
LINE
 8 
0
 62 
 7 
 10 
0.688
 20 
0.269
 11 
0.688
 21 
0.243
 0 
LINE
 8 
0
 62 
 7 
 10 
0.688
 20 
0.243
 11 
0.682
 21 
0.237
 0 
LINE
 8 
0
 62 
 7 
 10 
0.682
 20 
0.237
 11 
0.669
 21 
0.237
 0 
LINE
 8 
0
 62 
 7 
 10 
0.669
 20 
0.237
 11 
0.663
 21 
0.243
 0 
LINE
 8 
0
 62 
 7 
 10 
0.663
 20 
0.243
 11 
0.688
 21 
0.269
 0 
LINE
 8 
0
 62 
 7 
 10 
0.701
 20 
0.243
 11 
0.701
 21 
0.269
 0 
LINE
 8 
0
 62 
 7 
 10 
0.701
 20 
0.269
 11 
0.707
 21 
0.275
 0 
LINE
 8 
0
 62 
 7 
 10 
0.707
 20 
0.275
 11 
0.72
 21 
0.275
 0 
LINE
 8 
0
 62 
 7 
 10 
0.72
 20 
0.275
 11 
0.726
 21 
0.269
 0 
LINE
 8 
0
 62 
 7 
 10 
0.726
 20 
0.269
 11 
0.726
 21 
0.243
 0 
LINE
 8 
0
 62 
 7 
 10 
0.726
 20 
0.243
 11 
0.72
 21 
0.237
 0 
LINE
 8 
0
 62 
 7 
 10 
0.72
 20 
0.237
 11 
0.707
 21 
0.237
 0 
LINE
 8 
0
 62 
 7 
 10 
0.707
 20 
0.237
 11 
0.701
 21 
0.243
 0 
LINE
 8 
0
 62 
 7 
 10 
0.701
 20 
0.243
 11 
0.726
 21 
0.269
 0 
LINE
 8 
0
 62 
 7 
 10 
0.739
 20 
0.262
 11 
0.739
 21 
0.237
 0 
LINE
 8 
0
 62 
 7 
 10 
0.739
 20 
0.25
 11 
0.752
 21 
0.262
 0 
LINE
 8 
0
 62 
 7 
 10 
0.752
 20 
0.262
 11 
0.758
 21 
0.262
 0 
LINE
 8 
0
 62 
 7 
 10 
0.758
 20 
0.262
 11 
0.764
 21 
0.256
 0 
LINE
 8 
0
 62 
 7 
 10 
0.764
 20 
0.256
 11 
0.764
 21 
0.237
 0 
LINE
 8 
0
 62 
 7 
 10 
0.802
 20 
0.269
 11 
0.796
 21 
0.275
 0 
LINE
 8 
0
 62 
 7 
 10 
0.796
 20 
0.275
 11 
0.79
 21 
0.269
 0 
LINE
 8 
0
 62 
 7 
 10 
0.79
 20 
0.269
 11 
0.79
 21 
0.237
 0 
LINE
 8 
0
 62 
 7 
 10 
0.783
 20 
0.256
 11 
0.796
 21 
0.256
 0 
LINE
 8 
0
 62 
 7 
 10 
0.783
 20 
0.237
 11 
0.796
 21 
0.237
 0 
LINE
 8 
0
 62 
 7 
 10 
0.405
 20 
0.4
 11 
0.425
 21 
0.38
 0 
LINE
 8 
0
 62 
 7 
 10 
0.27
 20 
0.453
 11 
0.264
 21 
0.459
 0 
LINE
 8 
0
 62 
 7 
 10 
0.264
 20 
0.459
 11 
0.251
 21 
0.459
 0 
LINE
 8 
0
 62 
 7 
 10 
0.251
 20 
0.459
 11 
0.245
 21 
0.453
 0 
LINE
 8 
0
 62 
 7 
 10 
0.245
 20 
0.453
 11 
0.245
 21 
0.427
 0 
LINE
 8 
0
 62 
 7 
 10 
0.245
 20 
0.427
 11 
0.251
 21 
0.421
 0 
LINE
 8 
0
 62 
 7 
 10 
0.251
 20 
0.421
 11 
0.264
 21 
0.421
 0 
LINE
 8 
0
 62 
 7 
 10 
0.264
 20 
0.421
 11 
0.27
 21 
0.427
 0 
LINE
 8 
0
 62 
 7 
 10 
0.289
 20 
0.453
 11 
0.296
 21 
0.459
 0 
LINE
 8 
0
 62 
 7 
 10 
0.296
 20 
0.459
 11 
0.296
 21 
0.421
 0 
LINE
 8 
0
 62 
 7 
 10 
0.289
 20 
0.421
 11 
0.302
 21 
0.421
 0 
LINE
 8 
0
 62 
 7 
 10 
1.211
 20 
0.343
 11 
1.205
 21 
0.35
 0 
LINE
 8 
0
 62 
 7 
 10 
1.205
 20 
0.35
 11 
1.243
 21 
0.35
 0 
LINE
 8 
0
 62 
 7 
 10 
1.243
 20 
0.343
 11 
1.243
 21 
0.356
 0 
LINE
 8 
0
 62 
 7 
 10 
1.237
 20 
0.375
 11 
1.211
 21 
0.375
 0 
LINE
 8 
0
 62 
 7 
 10 
1.211
 20 
0.375
 11 
1.205
 21 
0.381
 0 
LINE
 8 
0
 62 
 7 
 10 
1.205
 20 
0.381
 11 
1.205
 21 
0.394
 0 
LINE
 8 
0
 62 
 7 
 10 
1.205
 20 
0.394
 11 
1.211
 21 
0.4
 0 
LINE
 8 
0
 62 
 7 
 10 
1.211
 20 
0.4
 11 
1.237
 21 
0.4
 0 
LINE
 8 
0
 62 
 7 
 10 
1.237
 20 
0.4
 11 
1.243
 21 
0.394
 0 
LINE
 8 
0
 62 
 7 
 10 
1.243
 20 
0.394
 11 
1.243
 21 
0.381
 0 
LINE
 8 
0
 62 
 7 
 10 
1.243
 20 
0.381
 11 
1.237
 21 
0.375
 0 
LINE
 8 
0
 62 
 7 
 10 
1.237
 20 
0.375
 11 
1.211
 21 
0.4
 0 
LINE
 8 
0
 62 
 7 
 10 
1.205
 20 
0.413
 11 
1.205
 21 
0.419
 0 
LINE
 8 
0
 62 
 7 
 10 
1.205
 20 
0.419
 11 
1.243
 21 
0.419
 0 
LINE
 8 
0
 62 
 7 
 10 
1.218
 20 
0.438
 11 
1.23
 21 
0.426
 0 
LINE
 8 
0
 62 
 7 
 10 
1.23
 20 
0.426
 11 
1.243
 21 
0.438
 0 
LINE
 8 
0
 62 
 7 
 10 
1.23
 20 
0.419
 11 
1.23
 21 
0.426
 0 
LINE
 8 
0
 62 
 7 
 10 
0.617
 20 
0.773
 11 
0.617
 21 
0.82
 0 
CIRCLE
 8 
0
 62 
 7 
 10 
0.75
 20 
0.35
 40 
0.028
 0 
CIRCLE
 8 
0
 62 
 7 
 10 
0.75
 20 
0.35
 40 
0.014
 0 
CIRCLE
 8 
0
 62 
 7 
 10 
0.65
 20 
0.35
 40 
0.028
 0 
CIRCLE
 8 
0
 62 
 7 
 10 
0.65
 20 
0.35
 40 
0.014
 0 
CIRCLE
 8 
0
 62 
 7 
 10 
0.1
 20 
0.6
 40 
0.08
 0 
CIRCLE
 8 
0
 62 
 7 
 10 
0.1
 20 
0.6
 40 
0.062
 0 
LINE
 8 
0
 62 
 7 
 10 
0.694
 20 
0.896
 11 
0.74
 21 
0.896
 0 
LINE
 8 
0
 62 
 7 
 10 
0.717
 20 
0.873
 11 
0.717
 21 
0.92
 0 
LINE
 8 
0
 62 
 7 
 10 
0.8
 20 
0.38
 11 
0.8
 21 
0.32
 0 
LINE
 8 
0
 62 
 7 
 10 
0.8
 20 
0.32
 11 
0.78
 21 
0.3
 0 
LINE
 8 
0
 62 
 7 
 10 
0.78
 20 
0.3
 11 
0.62
 21 
0.3
 0 
LINE
 8 
0
 62 
 7 
 10 
0.62
 20 
0.3
 11 
0.6
 21 
0.32
 0 
CIRCLE
 8 
0
 62 
 7 
 10 
1.5
 20 
1.175
 40 
0.028
 0 
CIRCLE
 8 
0
 62 
 7 
 10 
1.5
 20 
1.175
 40 
0.014
 0 
CIRCLE
 8 
0
 62 
 7 
 10 
1.75
 20 
1.175
 40 
0.028
 0 
CIRCLE
 8 
0
 62 
 7 
 10 
1.75
 20 
1.175
 40 
0.014
 0 
LINE
 8 
0
 62 
 7 
 10 
0.6
 20 
0.32
 11 
0.6
 21 
0.38
 0 
LINE
 8 
0
 62 
 7 
 10 
0.6
 20 
0.38
 11 
0.62
 21 
0.4
 0 
LINE
 8 
0
 62 
 7 
 10 
1.57
 20 
1.145
 11 
1.57
 21 
1.205
 0 
LINE
 8 
0
 62 
 7 
 10 
0.694
 20 
0.796
 11 
0.74
 21 
0.796
 0 
LINE
 8 
0
 62 
 7 
 10 
0.717
 20 
0.773
 11 
0.717
 21 
0.82
 0 
LINE
 8 
0
 62 
 7 
 10 
0.62
 20 
0.4
 11 
0.78
 21 
0.4
 0 
LINE
 8 
0
 62 
 7 
 10 
0.78
 20 
0.4
 11 
0.8
 21 
0.38
 0 
LINE
 8 
0
 62 
 7 
 10 
1.68
 20 
1.205
 11 
1.57
 21 
1.205
 0 
LINE
 8 
0
 62 
 7 
 10 
1.68
 20 
1.205
 11 
1.68
 21 
1.145
 0 
LINE
 8 
0
 62 
 7 
 10 
1.57
 20 
1.145
 11 
1.68
 21 
1.145
 0 
LINE
 8 
0
 62 
 7 
 10 
1.57
 20 
1.175
 11 
1.545
 21 
1.175
 0 
LINE
 8 
0
 62 
 7 
 10 
0.648
 20 
0.452
 11 
0.642
 21 
0.458
 0 
LINE
 8 
0
 62 
 7 
 10 
0.642
 20 
0.458
 11 
0.629
 21 
0.458
 0 
LINE
 8 
0
 62 
 7 
 10 
0.629
 20 
0.458
 11 
0.623
 21 
0.452
 0 
LINE
 8 
0
 62 
 7 
 10 
0.623
 20 
0.452
 11 
0.623
 21 
0.426
 0 
LINE
 8 
0
 62 
 7 
 10 
0.623
 20 
0.426
 11 
0.629
 21 
0.42
 0 
LINE
 8 
0
 62 
 7 
 10 
0.629
 20 
0.42
 11 
0.642
 21 
0.42
 0 
LINE
 8 
0
 62 
 7 
 10 
0.642
 20 
0.42
 11 
0.648
 21 
0.426
 0 
LINE
 8 
0
 62 
 7 
 10 
0.661
 20 
0.452
 11 
0.667
 21 
0.458
 0 
LINE
 8 
0
 62 
 7 
 10 
0.667
 20 
0.458
 11 
0.68
 21 
0.458
 0 
LINE
 8 
0
 62 
 7 
 10 
0.68
 20 
0.458
 11 
0.686
 21 
0.452
 0 
LINE
 8 
0
 62 
 7 
 10 
0.686
 20 
0.452
 11 
0.686
 21 
0.445
 0 
LINE
 8 
0
 62 
 7 
 10 
0.686
 20 
0.445
 11 
0.68
 21 
0.439
 0 
LINE
 8 
0
 62 
 7 
 10 
0.68
 20 
0.439
 11 
0.667
 21 
0.439
 0 
LINE
 8 
0
 62 
 7 
 10 
0.667
 20 
0.439
 11 
0.661
 21 
0.433
 0 
LINE
 8 
0
 62 
 7 
 10 
0.661
 20 
0.433
 11 
0.661
 21 
0.42
 0 
LINE
 8 
0
 62 
 7 
 10 
0.661
 20 
0.42
 11 
0.686
 21 
0.42
 0 
LINE
 8 
0
 62 
 7 
 10 
1.68
 20 
1.175
 11 
1.705
 21 
1.175
 0 
LINE
 8 
0
 62 
 7 
 10 
1.45
 20 
1.087
 11 
1.45
 21 
1.125
 0 
LINE
 8 
0
 62 
 7 
 10 
1.45
 20 
1.125
 11 
1.469
 21 
1.125
 0 
LINE
 8 
0
 62 
 7 
 10 
1.469
 20 
1.125
 11 
1.475
 21 
1.119
 0 
LINE
 8 
0
 62 
 7 
 10 
1.475
 20 
1.119
 11 
1.475
 21 
1.112
 0 
LINE
 8 
0
 62 
 7 
 10 
1.475
 20 
1.112
 11 
1.469
 21 
1.106
 0 
LINE
 8 
0
 62 
 7 
 10 
1.469
 20 
1.106
 11 
1.45
 21 
1.106
 0 
LINE
 8 
0
 62 
 7 
 10 
1.456
 20 
1.106
 11 
1.475
 21 
1.087
 0 
LINE
 8 
0
 62 
 7 
 10 
1.494
 20 
1.119
 11 
1.501
 21 
1.125
 0 
LINE
 8 
0
 62 
 7 
 10 
1.501
 20 
1.125
 11 
1.501
 21 
1.087
 0 
LINE
 8 
0
 62 
 7 
 10 
1.494
 20 
1.087
 11 
1.507
 21 
1.087
 0 
LINE
 8 
0
 62 
 7 
 10 
0.845
 20 
0.767
 11 
0.82
 21 
0.767
 0 
LINE
 8 
0
 62 
 7 
 10 
0.82
 20 
0.767
 11 
0.807
 21 
0.78
 0 
LINE
 8 
0
 62 
 7 
 10 
0.807
 20 
0.78
 11 
0.82
 21 
0.792
 0 
LINE
 8 
0
 62 
 7 
 10 
0.82
 20 
0.792
 11 
0.845
 21 
0.792
 0 
LINE
 8 
0
 62 
 7 
 10 
0.832
 20 
0.767
 11 
0.832
 21 
0.792
 0 
LINE
 8 
0
 62 
 7 
 10 
0.839
 20 
0.805
 11 
0.813
 21 
0.805
 0 
LINE
 8 
0
 62 
 7 
 10 
0.813
 20 
0.805
 11 
0.807
 21 
0.811
 0 
LINE
 8 
0
 62 
 7 
 10 
0.807
 20 
0.811
 11 
0.807
 21 
0.824
 0 
LINE
 8 
0
 62 
 7 
 10 
0.807
 20 
0.824
 11 
0.813
 21 
0.83
 0 
LINE
 8 
0
 62 
 7 
 10 
0.813
 20 
0.83
 11 
0.839
 21 
0.83
 0 
LINE
 8 
0
 62 
 7 
 10 
0.839
 20 
0.83
 11 
0.845
 21 
0.824
 0 
LINE
 8 
0
 62 
 7 
 10 
0.845
 20 
0.824
 11 
0.845
 21 
0.811
 0 
LINE
 8 
0
 62 
 7 
 10 
0.845
 20 
0.811
 11 
0.839
 21 
0.805
 0 
LINE
 8 
0
 62 
 7 
 10 
0.839
 20 
0.805
 11 
0.813
 21 
0.83
 0 
LINE
 8 
0
 62 
 7 
 10 
0.813
 20 
0.892
 11 
0.807
 21 
0.886
 0 
LINE
 8 
0
 62 
 7 
 10 
0.807
 20 
0.886
 11 
0.807
 21 
0.873
 0 
LINE
 8 
0
 62 
 7 
 10 
0.807
 20 
0.873
 11 
0.813
 21 
0.867
 0 
LINE
 8 
0
 62 
 7 
 10 
0.813
 20 
0.867
 11 
0.839
 21 
0.867
 0 
LINE
 8 
0
 62 
 7 
 10 
0.839
 20 
0.867
 11 
0.845
 21 
0.873
 0 
LINE
 8 
0
 62 
 7 
 10 
0.845
 20 
0.873
 11 
0.845
 21 
0.886
 0 
LINE
 8 
0
 62 
 7 
 10 
0.845
 20 
0.886
 11 
0.839
 21 
0.892
 0 
LINE
 8 
0
 62 
 7 
 10 
0.807
 20 
0.93
 11 
0.807
 21 
0.905
 0 
LINE
 8 
0
 62 
 7 
 10 
0.807
 20 
0.905
 11 
0.845
 21 
0.905
 0 
LINE
 8 
0
 62 
 7 
 10 
0.845
 20 
0.905
 11 
0.845
 21 
0.93
 0 
LINE
 8 
0
 62 
 7 
 10 
0.826
 20 
0.905
 11 
0.826
 21 
0.924
 0 
LINE
 8 
0
 62 
 7 
 10 
1.207
 20 
0.867
 11 
1.207
 21 
0.886
 0 
LINE
 8 
0
 62 
 7 
 10 
1.207
 20 
0.886
 11 
1.213
 21 
0.892
 0 
LINE
 8 
0
 62 
 7 
 10 
1.213
 20 
0.892
 11 
1.239
 21 
0.892
 0 
LINE
 8 
0
 62 
 7 
 10 
1.239
 20 
0.892
 11 
1.245
 21 
0.886
 0 
LINE
 8 
0
 62 
 7 
 10 
1.245
 20 
0.886
 11 
1.245
 21 
0.867
 0 
LINE
 8 
0
 62 
 7 
 10 
1.207
 20 
0.873
 11 
1.245
 21 
0.873
 0 
LINE
 8 
0
 62 
 7 
 10 
1.213
 20 
0.905
 11 
1.207
 21 
0.905
 0 
LINE
 8 
0
 62 
 7 
 10 
1.207
 20 
0.905
 11 
1.207
 21 
0.93
 0 
LINE
 8 
0
 62 
 7 
 10 
1.207
 20 
0.93
 11 
1.213
 21 
0.93
 0 
LINE
 8 
0
 62 
 7 
 10 
1.213
 20 
0.93
 11 
1.232
 21 
0.911
 0 
LINE
 8 
0
 62 
 7 
 10 
1.232
 20 
0.911
 11 
1.245
 21 
0.911
 0 
LINE
 8 
0
 62 
 7 
 10 
1.207
 20 
0.767
 11 
1.207
 21 
0.786
 0 
LINE
 8 
0
 62 
 7 
 10 
1.207
 20 
0.786
 11 
1.213
 21 
0.792
 0 
LINE
 8 
0
 62 
 7 
 10 
1.213
 20 
0.792
 11 
1.239
 21 
0.792
 0 
LINE
 8 
0
 62 
 7 
 10 
1.239
 20 
0.792
 11 
1.245
 21 
0.786
 0 
LINE
 8 
0
 62 
 7 
 10 
1.245
 20 
0.786
 11 
1.245
 21 
0.767
 0 
LINE
 8 
0
 62 
 7 
 10 
1.207
 20 
0.773
 11 
1.245
 21 
0.773
 0 
LINE
 8 
0
 62 
 7 
 10 
1.207
 20 
0.824
 11 
1.207
 21 
0.818
 0 
LINE
 8 
0
 62 
 7 
 10 
1.207
 20 
0.818
 11 
1.22
 21 
0.805
 0 
LINE
 8 
0
 62 
 7 
 10 
1.22
 20 
0.805
 11 
1.239
 21 
0.805
 0 
LINE
 8 
0
 62 
 7 
 10 
1.239
 20 
0.805
 11 
1.245
 21 
0.811
 0 
LINE
 8 
0
 62 
 7 
 10 
1.245
 20 
0.811
 11 
1.245
 21 
0.824
 0 
LINE
 8 
0
 62 
 7 
 10 
1.245
 20 
0.824
 11 
1.239
 21 
0.83
 0 
LINE
 8 
0
 62 
 7 
 10 
1.239
 20 
0.83
 11 
1.232
 21 
0.83
 0 
LINE
 8 
0
 62 
 7 
 10 
1.232
 20 
0.83
 11 
1.226
 21 
0.824
 0 
LINE
 8 
0
 62 
 7 
 10 
1.226
 20 
0.824
 11 
1.226
 21 
0.811
 0 
LINE
 8 
0
 62 
 7 
 10 
1.226
 20 
0.811
 11 
1.232
 21 
0.805
 0 
LINE
 8 
0
 62 
 7 
 10 
1.107
 20 
0.867
 11 
1.107
 21 
0.886
 0 
LINE
 8 
0
 62 
 7 
 10 
1.107
 20 
0.886
 11 
1.113
 21 
0.892
 0 
LINE
 8 
0
 62 
 7 
 10 
1.113
 20 
0.892
 11 
1.139
 21 
0.892
 0 
LINE
 8 
0
 62 
 7 
 10 
1.139
 20 
0.892
 11 
1.145
 21 
0.886
 0 
LINE
 8 
0
 62 
 7 
 10 
1.145
 20 
0.886
 11 
1.145
 21 
0.867
 0 
LINE
 8 
0
 62 
 7 
 10 
1.107
 20 
0.873
 11 
1.145
 21 
0.873
 0 
LINE
 8 
0
 62 
 7 
 10 
1.107
 20 
0.93
 11 
1.107
 21 
0.905
 0 
LINE
 8 
0
 62 
 7 
 10 
1.107
 20 
0.905
 11 
1.12
 21 
0.905
 0 
LINE
 8 
0
 62 
 7 
 10 
1.12
 20 
0.905
 11 
1.12
 21 
0.924
 0 
LINE
 8 
0
 62 
 7 
 10 
1.12
 20 
0.924
 11 
1.126
 21 
0.93
 0 
LINE
 8 
0
 62 
 7 
 10 
1.126
 20 
0.93
 11 
1.139
 21 
0.93
 0 
LINE
 8 
0
 62 
 7 
 10 
1.139
 20 
0.93
 11 
1.145
 21 
0.924
 0 
LINE
 8 
0
 62 
 7 
 10 
1.145
 20 
0.924
 11 
1.145
 21 
0.911
 0 
LINE
 8 
0
 62 
 7 
 10 
1.145
 20 
0.911
 11 
1.139
 21 
0.905
 0 
LINE
 8 
0
 62 
 7 
 10 
1.107
 20 
0.767
 11 
1.107
 21 
0.786
 0 
LINE
 8 
0
 62 
 7 
 10 
1.107
 20 
0.786
 11 
1.113
 21 
0.792
 0 
LINE
 8 
0
 62 
 7 
 10 
1.113
 20 
0.792
 11 
1.139
 21 
0.792
 0 
LINE
 8 
0
 62 
 7 
 10 
1.139
 20 
0.792
 11 
1.145
 21 
0.786
 0 
LINE
 8 
0
 62 
 7 
 10 
1.145
 20 
0.786
 11 
1.145
 21 
0.767
 0 
LINE
 8 
0
 62 
 7 
 10 
1.107
 20 
0.773
 11 
1.145
 21 
0.773
 0 
LINE
 8 
0
 62 
 7 
 10 
1.132
 20 
0.83
 11 
1.132
 21 
0.805
 0 
LINE
 8 
0
 62 
 7 
 10 
1.132
 20 
0.805
 11 
1.126
 21 
0.805
 0 
LINE
 8 
0
 62 
 7 
 10 
1.126
 20 
0.805
 11 
1.107
 21 
0.824
 0 
LINE
 8 
0
 62 
 7 
 10 
1.107
 20 
0.824
 11 
1.145
 21 
0.824
 0 
LINE
 8 
0
 62 
 7 
 10 
1.007
 20 
0.867
 11 
1.007
 21 
0.886
 0 
LINE
 8 
0
 62 
 7 
 10 
1.007
 20 
0.886
 11 
1.013
 21 
0.892
 0 
LINE
 8 
0
 62 
 7 
 10 
1.013
 20 
0.892
 11 
1.039
 21 
0.892
 0 
LINE
 8 
0
 62 
 7 
 10 
1.039
 20 
0.892
 11 
1.045
 21 
0.886
 0 
LINE
 8 
0
 62 
 7 
 10 
1.045
 20 
0.886
 11 
1.045
 21 
0.867
 0 
LINE
 8 
0
 62 
 7 
 10 
1.007
 20 
0.873
 11 
1.045
 21 
0.873
 0 
LINE
 8 
0
 62 
 7 
 10 
1.013
 20 
0.905
 11 
1.007
 21 
0.911
 0 
LINE
 8 
0
 62 
 7 
 10 
1.007
 20 
0.911
 11 
1.007
 21 
0.924
 0 
LINE
 8 
0
 62 
 7 
 10 
1.007
 20 
0.924
 11 
1.013
 21 
0.93
 0 
LINE
 8 
0
 62 
 7 
 10 
1.013
 20 
0.93
 11 
1.02
 21 
0.93
 0 
LINE
 8 
0
 62 
 7 
 10 
1.02
 20 
0.93
 11 
1.026
 21 
0.924
 0 
LINE
 8 
0
 62 
 7 
 10 
1.026
 20 
0.924
 11 
1.026
 21 
0.918
 0 
LINE
 8 
0
 62 
 7 
 10 
1.026
 20 
0.924
 11 
1.032
 21 
0.93
 0 
LINE
 8 
0
 62 
 7 
 10 
1.032
 20 
0.93
 11 
1.039
 21 
0.93
 0 
LINE
 8 
0
 62 
 7 
 10 
1.039
 20 
0.93
 11 
1.045
 21 
0.924
 0 
LINE
 8 
0
 62 
 7 
 10 
1.045
 20 
0.924
 11 
1.045
 21 
0.911
 0 
LINE
 8 
0
 62 
 7 
 10 
1.045
 20 
0.911
 11 
1.039
 21 
0.905
 0 
LINE
 8 
0
 62 
 7 
 10 
1.007
 20 
0.767
 11 
1.007
 21 
0.786
 0 
LINE
 8 
0
 62 
 7 
 10 
1.007
 20 
0.786
 11 
1.013
 21 
0.792
 0 
LINE
 8 
0
 62 
 7 
 10 
1.013
 20 
0.792
 11 
1.039
 21 
0.792
 0 
LINE
 8 
0
 62 
 7 
 10 
1.039
 20 
0.792
 11 
1.045
 21 
0.786
 0 
LINE
 8 
0
 62 
 7 
 10 
1.045
 20 
0.786
 11 
1.045
 21 
0.767
 0 
LINE
 8 
0
 62 
 7 
 10 
1.007
 20 
0.773
 11 
1.045
 21 
0.773
 0 
LINE
 8 
0
 62 
 7 
 10 
1.013
 20 
0.805
 11 
1.007
 21 
0.811
 0 
LINE
 8 
0
 62 
 7 
 10 
1.007
 20 
0.811
 11 
1.007
 21 
0.824
 0 
LINE
 8 
0
 62 
 7 
 10 
1.007
 20 
0.824
 11 
1.013
 21 
0.83
 0 
LINE
 8 
0
 62 
 7 
 10 
1.013
 20 
0.83
 11 
1.02
 21 
0.83
 0 
LINE
 8 
0
 62 
 7 
 10 
1.02
 20 
0.83
 11 
1.026
 21 
0.824
 0 
LINE
 8 
0
 62 
 7 
 10 
1.026
 20 
0.824
 11 
1.026
 21 
0.811
 0 
LINE
 8 
0
 62 
 7 
 10 
1.026
 20 
0.811
 11 
1.032
 21 
0.805
 0 
LINE
 8 
0
 62 
 7 
 10 
1.032
 20 
0.805
 11 
1.045
 21 
0.805
 0 
LINE
 8 
0
 62 
 7 
 10 
1.045
 20 
0.805
 11 
1.045
 21 
0.83
 0 
LINE
 8 
0
 62 
 7 
 10 
0.592
 20 
1.108
 11 
0.657
 21 
1.108
 0 
LINE
 8 
0
 62 
 7 
 10 
0.657
 20 
1.108
 11 
0.657
 21 
1.043
 0 
LINE
 8 
0
 62 
 7 
 10 
0.657
 20 
1.043
 11 
0.592
 21 
1.043
 0 
LINE
 8 
0
 62 
 7 
 10 
0.592
 20 
1.043
 11 
0.592
 21 
1.108
 0 
CIRCLE
 8 
0
 62 
 7 
 10 
0.625
 20 
1.075
 40 
0.018
 0 
LINE
 8 
0
 62 
 7 
 10 
0.225
 20 
0.5
 11 
0.225
 21 
0.7
 0 
LINE
 8 
0
 62 
 7 
 10 
1.925
 20 
0.7
 11 
0.225
 21 
0.7
 0 
LINE
 8 
0
 62 
 7 
 10 
1.925
 20 
0.7
 11 
1.925
 21 
0.5
 0 
LINE
 8 
0
 62 
 7 
 10 
0.225
 20 
0.5
 11 
1.925
 21 
0.5
 0 
LINE
 8 
0
 62 
 7 
 10 
1.95
 20 
0.5
 11 
1.99
 21 
0.5
 0 
LINE
 8 
0
 62 
 7 
 10 
1.99
 20 
0.5
 11 
1.99
 21 
0.527
 0 
LINE
 8 
0
 62 
 7 
 10 
1.957
 20 
0.567
 11 
1.95
 21 
0.56
 0 
LINE
 8 
0
 62 
 7 
 10 
1.95
 20 
0.56
 11 
1.95
 21 
0.547
 0 
LINE
 8 
0
 62 
 7 
 10 
1.95
 20 
0.547
 11 
1.957
 21 
0.54
 0 
LINE
 8 
0
 62 
 7 
 10 
1.957
 20 
0.54
 11 
1.983
 21 
0.54
 0 
LINE
 8 
0
 62 
 7 
 10 
1.983
 20 
0.54
 11 
1.99
 21 
0.547
 0 
LINE
 8 
0
 62 
 7 
 10 
1.99
 20 
0.547
 11 
1.99
 21 
0.56
 0 
LINE
 8 
0
 62 
 7 
 10 
1.99
 20 
0.56
 11 
1.983
 21 
0.567
 0 
LINE
 8 
0
 62 
 7 
 10 
1.95
 20 
0.58
 11 
1.95
 21 
0.6
 0 
LINE
 8 
0
 62 
 7 
 10 
1.95
 20 
0.6
 11 
1.957
 21 
0.607
 0 
LINE
 8 
0
 62 
 7 
 10 
1.957
 20 
0.607
 11 
1.983
 21 
0.607
 0 
LINE
 8 
0
 62 
 7 
 10 
1.983
 20 
0.607
 11 
1.99
 21 
0.6
 0 
LINE
 8 
0
 62 
 7 
 10 
1.99
 20 
0.6
 11 
1.99
 21 
0.58
 0 
LINE
 8 
0
 62 
 7 
 10 
1.95
 20 
0.587
 11 
1.99
 21 
0.587
 0 
LINE
 8 
0
 62 
 7 
 10 
1.97
 20 
0.62
 11 
1.97
 21 
0.647
 0 
LINE
 8 
0
 62 
 7 
 10 
1.957
 20 
0.667
 11 
1.95
 21 
0.673
 0 
LINE
 8 
0
 62 
 7 
 10 
1.95
 20 
0.673
 11 
1.99
 21 
0.673
 0 
LINE
 8 
0
 62 
 7 
 10 
1.99
 20 
0.667
 11 
1.99
 21 
0.68
 0 
LINE
 8 
0
 62 
 7 
 10 
1.95
 20 
0.72
 11 
1.95
 21 
0.713
 0 
LINE
 8 
0
 62 
 7 
 10 
1.95
 20 
0.713
 11 
1.963
 21 
0.7
 0 
LINE
 8 
0
 62 
 7 
 10 
1.963
 20 
0.7
 11 
1.983
 21 
0.7
 0 
LINE
 8 
0
 62 
 7 
 10 
1.983
 20 
0.7
 11 
1.99
 21 
0.707
 0 
LINE
 8 
0
 62 
 7 
 10 
1.99
 20 
0.707
 11 
1.99
 21 
0.72
 0 
LINE
 8 
0
 62 
 7 
 10 
1.99
 20 
0.72
 11 
1.983
 21 
0.727
 0 
LINE
 8 
0
 62 
 7 
 10 
1.983
 20 
0.727
 11 
1.977
 21 
0.727
 0 
LINE
 8 
0
 62 
 7 
 10 
1.977
 20 
0.727
 11 
1.97
 21 
0.72
 0 
LINE
 8 
0
 62 
 7 
 10 
1.97
 20 
0.72
 11 
1.97
 21 
0.707
 0 
LINE
 8 
0
 62 
 7 
 10 
1.97
 20 
0.707
 11 
1.977
 21 
0.7
 0 
LINE
 8 
0
 62 
 7 
 10 
1.983
 20 
0.74
 11 
1.957
 21 
0.74
 0 
LINE
 8 
0
 62 
 7 
 10 
1.957
 20 
0.74
 11 
1.95
 21 
0.747
 0 
LINE
 8 
0
 62 
 7 
 10 
1.95
 20 
0.747
 11 
1.95
 21 
0.76
 0 
LINE
 8 
0
 62 
 7 
 10 
1.95
 20 
0.76
 11 
1.957
 21 
0.767
 0 
LINE
 8 
0
 62 
 7 
 10 
1.957
 20 
0.767
 11 
1.983
 21 
0.767
 0 
LINE
 8 
0
 62 
 7 
 10 
1.983
 20 
0.767
 11 
1.99
 21 
0.76
 0 
LINE
 8 
0
 62 
 7 
 10 
1.99
 20 
0.76
 11 
1.99
 21 
0.747
 0 
LINE
 8 
0
 62 
 7 
 10 
1.99
 20 
0.747
 11 
1.983
 21 
0.74
 0 
LINE
 8 
0
 62 
 7 
 10 
1.983
 20 
0.74
 11 
1.957
 21 
0.767
 0 
LINE
 8 
0
 62 
 7 
 10 
1.957
 20 
0.78
 11 
1.95
 21 
0.787
 0 
LINE
 8 
0
 62 
 7 
 10 
1.95
 20 
0.787
 11 
1.95
 21 
0.8
 0 
LINE
 8 
0
 62 
 7 
 10 
1.95
 20 
0.8
 11 
1.957
 21 
0.807
 0 
LINE
 8 
0
 62 
 7 
 10 
1.957
 20 
0.807
 11 
1.963
 21 
0.807
 0 
LINE
 8 
0
 62 
 7 
 10 
1.963
 20 
0.807
 11 
1.97
 21 
0.8
 0 
LINE
 8 
0
 62 
 7 
 10 
1.97
 20 
0.8
 11 
1.97
 21 
0.787
 0 
LINE
 8 
0
 62 
 7 
 10 
1.97
 20 
0.787
 11 
1.977
 21 
0.78
 0 
LINE
 8 
0
 62 
 7 
 10 
1.977
 20 
0.78
 11 
1.99
 21 
0.78
 0 
LINE
 8 
0
 62 
 7 
 10 
1.99
 20 
0.78
 11 
1.99
 21 
0.807
 0 
LINE
 8 
0
 62 
 7 
 10 
1.521
 20 
1.26
 11 
1.527
 21 
1.266
 0 
LINE
 8 
0
 62 
 7 
 10 
1.527
 20 
1.266
 11 
1.54
 21 
1.266
 0 
LINE
 8 
0
 62 
 7 
 10 
1.54
 20 
1.266
 11 
1.546
 21 
1.26
 0 
LINE
 8 
0
 62 
 7 
 10 
1.546
 20 
1.26
 11 
1.546
 21 
1.253
 0 
LINE
 8 
0
 62 
 7 
 10 
1.546
 20 
1.253
 11 
1.54
 21 
1.247
 0 
LINE
 8 
0
 62 
 7 
 10 
1.54
 20 
1.247
 11 
1.527
 21 
1.247
 0 
LINE
 8 
0
 62 
 7 
 10 
1.527
 20 
1.247
 11 
1.521
 21 
1.241
 0 
LINE
 8 
0
 62 
 7 
 10 
1.521
 20 
1.241
 11 
1.521
 21 
1.228
 0 
LINE
 8 
0
 62 
 7 
 10 
1.521
 20 
1.228
 11 
1.546
 21 
1.228
 0 
LINE
 8 
0
 62 
 7 
 10 
1.559
 20 
1.26
 11 
1.565
 21 
1.266
 0 
LINE
 8 
0
 62 
 7 
 10 
1.565
 20 
1.266
 11 
1.578
 21 
1.266
 0 
LINE
 8 
0
 62 
 7 
 10 
1.578
 20 
1.266
 11 
1.584
 21 
1.26
 0 
LINE
 8 
0
 62 
 7 
 10 
1.584
 20 
1.26
 11 
1.584
 21 
1.253
 0 
LINE
 8 
0
 62 
 7 
 10 
1.584
 20 
1.253
 11 
1.578
 21 
1.247
 0 
LINE
 8 
0
 62 
 7 
 10 
1.578
 20 
1.247
 11 
1.565
 21 
1.247
 0 
LINE
 8 
0
 62 
 7 
 10 
1.565
 20 
1.247
 11 
1.559
 21 
1.241
 0 
LINE
 8 
0
 62 
 7 
 10 
1.559
 20 
1.241
 11 
1.559
 21 
1.228
 0 
LINE
 8 
0
 62 
 7 
 10 
1.559
 20 
1.228
 11 
1.584
 21 
1.228
 0 
LINE
 8 
0
 62 
 7 
 10 
1.597
 20 
1.234
 11 
1.597
 21 
1.26
 0 
LINE
 8 
0
 62 
 7 
 10 
1.597
 20 
1.26
 11 
1.603
 21 
1.266
 0 
LINE
 8 
0
 62 
 7 
 10 
1.603
 20 
1.266
 11 
1.616
 21 
1.266
 0 
LINE
 8 
0
 62 
 7 
 10 
1.616
 20 
1.266
 11 
1.622
 21 
1.26
 0 
LINE
 8 
0
 62 
 7 
 10 
1.622
 20 
1.26
 11 
1.622
 21 
1.234
 0 
LINE
 8 
0
 62 
 7 
 10 
1.622
 20 
1.234
 11 
1.616
 21 
1.228
 0 
LINE
 8 
0
 62 
 7 
 10 
1.616
 20 
1.228
 11 
1.603
 21 
1.228
 0 
LINE
 8 
0
 62 
 7 
 10 
1.603
 20 
1.228
 11 
1.597
 21 
1.234
 0 
LINE
 8 
0
 62 
 7 
 10 
1.597
 20 
1.234
 11 
1.622
 21 
1.26
 0 
LINE
 8 
0
 62 
 7 
 10 
1.66
 20 
1.247
 11 
1.654
 21 
1.253
 0 
LINE
 8 
0
 62 
 7 
 10 
1.654
 20 
1.253
 11 
1.641
 21 
1.253
 0 
LINE
 8 
0
 62 
 7 
 10 
1.641
 20 
1.253
 11 
1.635
 21 
1.247
 0 
LINE
 8 
0
 62 
 7 
 10 
1.635
 20 
1.247
 11 
1.635
 21 
1.234
 0 
LINE
 8 
0
 62 
 7 
 10 
1.635
 20 
1.234
 11 
1.641
 21 
1.228
 0 
LINE
 8 
0
 62 
 7 
 10 
1.641
 20 
1.228
 11 
1.654
 21 
1.228
 0 
LINE
 8 
0
 62 
 7 
 10 
1.654
 20 
1.228
 11 
1.66
 21 
1.234
 0 
LINE
 8 
0
 62 
 7 
 10 
1.66
 20 
1.234
 11 
1.66
 21 
1.247
 0 
LINE
 8 
0
 62 
 7 
 10 
1.673
 20 
1.266
 11 
1.673
 21 
1.228
 0 
LINE
 8 
0
 62 
 7 
 10 
1.673
 20 
1.241
 11 
1.686
 21 
1.253
 0 
LINE
 8 
0
 62 
 7 
 10 
1.686
 20 
1.253
 11 
1.692
 21 
1.253
 0 
LINE
 8 
0
 62 
 7 
 10 
1.692
 20 
1.253
 11 
1.698
 21 
1.247
 0 
LINE
 8 
0
 62 
 7 
 10 
1.698
 20 
1.247
 11 
1.698
 21 
1.228
 0 
LINE
 8 
0
 62 
 7 
 10 
1.711
 20 
1.253
 11 
1.711
 21 
1.228
 0 
LINE
 8 
0
 62 
 7 
 10 
1.711
 20 
1.247
 11 
1.717
 21 
1.253
 0 
LINE
 8 
0
 62 
 7 
 10 
1.717
 20 
1.253
 11 
1.724
 21 
1.247
 0 
LINE
 8 
0
 62 
 7 
 10 
1.724
 20 
1.247
 11 
1.724
 21 
1.228
 0 
LINE
 8 
0
 62 
 7 
 10 
1.724
 20 
1.247
 11 
1.73
 21 
1.253
 0 
LINE
 8 
0
 62 
 7 
 10 
1.73
 20 
1.253
 11 
1.736
 21 
1.247
 0 
LINE
 8 
0
 62 
 7 
 10 
1.736
 20 
1.247
 11 
1.736
 21 
1.228
 0 
LINE
 8 
0
 62 
 7 
 10 
1.27
 20 
0.445
 11 
2.02
 21 
0.445
 0 
LINE
 8 
0
 62 
 7 
 10 
2.02
 20 
0.255
 11 
2.02
 21 
0.445
 0 
LINE
 8 
0
 62 
 7 
 10 
2.02
 20 
0.255
 11 
1.27
 21 
0.255
 0 
LINE
 8 
0
 62 
 7 
 10 
1.27
 20 
0.445
 11 
1.27
 21 
0.255
 0 
LINE
 8 
0
 62 
 7 
 10 
2.02
 20 
0.395
 11 
2.08
 21 
0.395
 0 
LINE
 8 
0
 62 
 7 
 10 
2.08
 20 
0.305
 11 
2.08
 21 
0.395
 0 
LINE
 8 
0
 62 
 7 
 10 
2.08
 20 
0.305
 11 
2.02
 21 
0.305
 0 
LINE
 8 
0
 62 
 7 
 10 
2.02
 20 
0.395
 11 
2.02
 21 
0.305
 0 
LINE
 8 
0
 62 
 7 
 10 
1.561
 20 
0.419
 11 
1.561
 21 
0.394
 0 
LINE
 8 
0
 62 
 7 
 10 
1.561
 20 
0.394
 11 
1.578
 21 
0.377
 0 
LINE
 8 
0
 62 
 7 
 10 
1.578
 20 
0.377
 11 
1.594
 21 
0.394
 0 
LINE
 8 
0
 62 
 7 
 10 
1.594
 20 
0.394
 11 
1.594
 21 
0.419
 0 
LINE
 8 
0
 62 
 7 
 10 
1.578
 20 
0.377
 11 
1.578
 21 
0.369
 0 
LINE
 8 
0
 62 
 7 
 10 
1.611
 20 
0.369
 11 
1.611
 21 
0.419
 0 
LINE
 8 
0
 62 
 7 
 10 
1.611
 20 
0.419
 11 
1.636
 21 
0.419
 0 
LINE
 8 
0
 62 
 7 
 10 
1.636
 20 
0.419
 11 
1.644
 21 
0.411
 0 
LINE
 8 
0
 62 
 7 
 10 
1.644
 20 
0.411
 11 
1.644
 21 
0.402
 0 
LINE
 8 
0
 62 
 7 
 10 
1.644
 20 
0.402
 11 
1.636
 21 
0.394
 0 
LINE
 8 
0
 62 
 7 
 10 
1.636
 20 
0.394
 11 
1.611
 21 
0.394
 0 
LINE
 8 
0
 62 
 7 
 10 
1.619
 20 
0.394
 11 
1.644
 21 
0.369
 0 
LINE
 8 
0
 62 
 7 
 10 
1.669
 20 
0.411
 11 
1.678
 21 
0.419
 0 
LINE
 8 
0
 62 
 7 
 10 
1.678
 20 
0.419
 11 
1.678
 21 
0.369
 0 
LINE
 8 
0
 62 
 7 
 10 
1.669
 20 
0.369
 11 
1.686
 21 
0.369
 0 
LINE
 8 
0
 62 
 7 
 10 
1.505
 20 
0.843
 11 
1.505
 21 
0.818
 0 
LINE
 8 
0
 62 
 7 
 10 
1.505
 20 
0.818
 11 
1.48
 21 
0.818
 0 
LINE
 8 
0
 62 
 7 
 10 
1.48
 20 
0.818
 11 
1.48
 21 
0.843
 0 
LINE
 8 
0
 62 
 7 
 10 
1.48
 20 
0.843
 11 
1.505
 21 
0.843
 0 
CIRCLE
 8 
0
 62 
 7 
 10 
0.625
 20 
1.175
 40 
0.032
 0 
CIRCLE
 8 
0
 62 
 7 
 10 
0.625
 20 
1.175
 40 
0.018
 0 
LINE
 8 
0
 62 
 7 
 10 
1.54
 20 
0.85
 11 
1.54
 21 
1.1
 0 
LINE
 8 
0
 62 
 7 
 10 
1.86
 20 
1.1
 11 
1.54
 21 
1.1
 0 
LINE
 8 
0
 62 
 7 
 10 
1.86
 20 
1.1
 11 
1.86
 21 
0.85
 0 
LINE
 8 
0
 62 
 7 
 10 
1.54
 20 
0.85
 11 
1.86
 21 
0.85
 0 
LINE
 8 
0
 62 
 7 
 10 
1.6
 20 
0.856
 11 
1.6
 21 
0.874
 0 
LINE
 8 
0
 62 
 7 
 10 
1.8
 20 
0.874
 11 
1.6
 21 
0.874
 0 
LINE
 8 
0
 62 
 7 
 10 
1.8
 20 
0.874
 11 
1.8
 21 
0.856
 0 
LINE
 8 
0
 62 
 7 
 10 
1.6
 20 
0.856
 11 
1.8
 21 
0.856
 0 
LINE
 8 
0
 62 
 7 
 10 
1.6
 20 
0.862
 11 
1.6
 21 
0.868
 0 
LINE
 8 
0
 62 
 7 
 10 
1.8
 20 
0.868
 11 
1.6
 21 
0.868
 0 
LINE
 8 
0
 62 
 7 
 10 
1.8
 20 
0.868
 11 
1.8
 21 
0.862
 0 
LINE
 8 
0
 62 
 7 
 10 
1.6
 20 
0.862
 11 
1.8
 21 
0.862
 0 
LINE
 8 
0
 62 
 7 
 10 
1.875
 20 
0.856
 11 
1.875
 21 
0.875
 0 
LINE
 8 
0
 62 
 7 
 10 
1.875
 20 
0.875
 11 
1.907
 21 
0.875
 0 
LINE
 8 
0
 62 
 7 
 10 
1.907
 20 
0.875
 11 
1.913
 21 
0.869
 0 
LINE
 8 
0
 62 
 7 
 10 
1.913
 20 
0.869
 11 
1.913
 21 
0.856
 0 
LINE
 8 
0
 62 
 7 
 10 
1.913
 20 
0.856
 11 
1.907
 21 
0.85
 0 
LINE
 8 
0
 62 
 7 
 10 
1.913
 20 
0.888
 11 
1.875
 21 
0.888
 0 
LINE
 8 
0
 62 
 7 
 10 
1.875
 20 
0.888
 11 
1.875
 21 
0.907
 0 
LINE
 8 
0
 62 
 7 
 10 
1.875
 20 
0.907
 11 
1.881
 21 
0.913
 0 
LINE
 8 
0
 62 
 7 
 10 
1.881
 20 
0.913
 11 
1.888
 21 
0.913
 0 
LINE
 8 
0
 62 
 7 
 10 
1.888
 20 
0.913
 11 
1.894
 21 
0.907
 0 
LINE
 8 
0
 62 
 7 
 10 
1.894
 20 
0.907
 11 
1.894
 21 
0.888
 0 
LINE
 8 
0
 62 
 7 
 10 
1.881
 20 
0.932
 11 
1.875
 21 
0.939
 0 
LINE
 8 
0
 62 
 7 
 10 
1.875
 20 
0.939
 11 
1.913
 21 
0.939
 0 
LINE
 8 
0
 62 
 7 
 10 
1.913
 20 
0.932
 11 
1.913
 21 
0.945
 0 
CIRCLE
 8 
0
 62 
 7 
 10 
0.725
 20 
1.075
 40 
0.032
 0 
CIRCLE
 8 
0
 62 
 7 
 10 
0.725
 20 
1.075
 40 
0.018
 0 
CIRCLE
 8 
0
 62 
 7 
 10 
0.725
 20 
1.175
 40 
0.032
 0 
CIRCLE
 8 
0
 62 
 7 
 10 
0.725
 20 
1.175
 40 
0.018
 0 
CIRCLE
 8 
0
 62 
 7 
 10 
0.825
 20 
1.075
 40 
0.032
 0 
CIRCLE
 8 
0
 62 
 7 
 10 
0.825
 20 
1.075
 40 
0.018
 0 
CIRCLE
 8 
0
 62 
 7 
 10 
0.825
 20 
1.175
 40 
0.032
 0 
CIRCLE
 8 
0
 62 
 7 
 10 
0.825
 20 
1.175
 40 
0.018
 0 
CIRCLE
 8 
0
 62 
 7 
 10 
0.925
 20 
1.075
 40 
0.032
 0 
CIRCLE
 8 
0
 62 
 7 
 10 
0.925
 20 
1.075
 40 
0.018
 0 
CIRCLE
 8 
0
 62 
 7 
 10 
0.925
 20 
1.175
 40 
0.032
 0 
CIRCLE
 8 
0
 62 
 7 
 10 
0.925
 20 
1.175
 40 
0.018
 0 
CIRCLE
 8 
0
 62 
 7 
 10 
1.025
 20 
1.075
 40 
0.032
 0 
CIRCLE
 8 
0
 62 
 7 
 10 
1.025
 20 
1.075
 40 
0.018
 0 
CIRCLE
 8 
0
 62 
 7 
 10 
1.025
 20 
1.175
 40 
0.032
 0 
CIRCLE
 8 
0
 62 
 7 
 10 
1.025
 20 
1.175
 40 
0.018
 0 
CIRCLE
 8 
0
 62 
 7 
 10 
1.125
 20 
1.075
 40 
0.032
 0 
CIRCLE
 8 
0
 62 
 7 
 10 
1.125
 20 
1.075
 40 
0.018
 0 
CIRCLE
 8 
0
 62 
 7 
 10 
1.125
 20 
1.175
 40 
0.032
 0 
CIRCLE
 8 
0
 62 
 7 
 10 
1.125
 20 
1.175
 40 
0.018
 0 
CIRCLE
 8 
0
 62 
 7 
 10 
1.225
 20 
1.075
 40 
0.032
 0 
CIRCLE
 8 
0
 62 
 7 
 10 
1.225
 20 
1.075
 40 
0.018
 0 
CIRCLE
 8 
0
 62 
 7 
 10 
1.225
 20 
1.175
 40 
0.032
 0 
CIRCLE
 8 
0
 62 
 7 
 10 
1.225
 20 
1.175
 40 
0.018
 0 
LINE
 8 
0
 62 
 7 
 10 
0.43
 20 
0.955
 11 
0.43
 21 
1.295
 0 
LINE
 8 
0
 62 
 7 
 10 
1.42
 20 
1.295
 11 
0.43
 21 
1.295
 0 
LINE
 8 
0
 62 
 7 
 10 
1.42
 20 
1.295
 11 
1.42
 21 
0.955
 0 
LINE
 8 
0
 62 
 7 
 10 
0.43
 20 
0.955
 11 
1.42
 21 
0.955
 0 
LINE
 8 
0
 62 
 7 
 10 
0.35
 20 
1.208
 11 
0.35
 21 
1.233
 0 
LINE
 8 
0
 62 
 7 
 10 
0.35
 20 
1.233
 11 
0.392
 21 
1.233
 0 
LINE
 8 
0
 62 
 7 
 10 
0.392
 20 
1.233
 11 
0.4
 21 
1.225
 0 
LINE
 8 
0
 62 
 7 
 10 
0.4
 20 
1.225
 11 
0.4
 21 
1.208
 0 
LINE
 8 
0
 62 
 7 
 10 
0.4
 20 
1.208
 11 
0.392
 21 
1.2
 0 
LINE
 8 
0
 62 
 7 
 10 
0.358
 20 
1.258
 11 
0.35
 21 
1.267
 0 
LINE
 8 
0
 62 
 7 
 10 
0.35
 20 
1.267
 11 
0.4
 21 
1.267
 0 
LINE
 8 
0
 62 
 7 
 10 
0.4
 20 
1.258
 11 
0.4
 21 
1.275
 0 
LINE
 8 
0
 62 
 7 
 10 
0.438
 20 
0.912
 11 
0.513
 21 
0.912
 0 
LINE
 8 
0
 62 
 7 
 10 
0.513
 20 
0.912
 11 
0.513
 21 
0.837
 0 
LINE
 8 
0
 62 
 7 
 10 
0.513
 20 
0.837
 11 
0.438
 21 
0.837
 0 
LINE
 8 
0
 62 
 7 
 10 
0.438
 20 
0.837
 11 
0.438
 21 
0.912
 0 
CIRCLE
 8 
0
 62 
 7 
 10 
0.475
 20 
0.875
 40 
0.02
 0 
LINE
 8 
0
 62 
 7 
 10 
0.192
 20 
0.675
 11 
0.171
 21 
0.675
 0 
LINE
 8 
0
 62 
 7 
 10 
0.171
 20 
0.675
 11 
0.171
 21 
0.696
 0 
LINE
 8 
0
 62 
 7 
 10 
0.171
 20 
0.696
 11 
0.192
 21 
0.696
 0 
LINE
 8 
0
 62 
 7 
 10 
0.192
 20 
0.696
 11 
0.192
 21 
0.675
 0 
CIRCLE
 8 
0
 62 
 7 
 10 
0.075
 20 
0.875
 40 
0.038
 0 
CIRCLE
 8 
0
 62 
 7 
 10 
0.075
 20 
0.875
 40 
0.02
 0 
LINE
 8 
0
 62 
 7 
 10 
0.39
 20 
0.925
 11 
0.39
 21 
0.825
 0 
LINE
 8 
0
 62 
 7 
 10 
0.16
 20 
0.825
 11 
0.39
 21 
0.825
 0 
LINE
 8 
0
 62 
 7 
 10 
0.16
 20 
0.825
 11 
0.16
 21 
0.925
 0 
LINE
 8 
0
 62 
 7 
 10 
0.44
 20 
0.442
 11 
0.44
 21 
0.412
 0 
LINE
 8 
0
 62 
 7 
 10 
0.425
 20 
0.428
 11 
0.455
 21 
0.428
 0 
LINE
 8 
0
 62 
 7 
 10 
0.39
 20 
0.925
 11 
0.16
 21 
0.925
 0 
LINE
 8 
0
 62 
 7 
 10 
0.39
 20 
0.875
 11 
0.425
 21 
0.875
 0 
LINE
 8 
0
 62 
 7 
 10 
0.16
 20 
0.875
 11 
0.125
 21 
0.875
 0 
LINE
 8 
0
 62 
 7 
 10 
0.355
 20 
0.925
 11 
0.355
 21 
0.825
 0 
LINE
 8 
0
 62 
 7 
 10 
0.907
 20 
0.867
 11 
0.907
 21 
0.886
 0 
LINE
 8 
0
 62 
 7 
 10 
0.907
 20 
0.886
 11 
0.913
 21 
0.892
 0 
LINE
 8 
0
 62 
 7 
 10 
0.913
 20 
0.892
 11 
0.939
 21 
0.892
 0 
LINE
 8 
0
 62 
 7 
 10 
0.939
 20 
0.892
 11 
0.945
 21 
0.886
 0 
LINE
 8 
0
 62 
 7 
 10 
0.945
 20 
0.886
 11 
0.945
 21 
0.867
 0 
LINE
 8 
0
 62 
 7 
 10 
0.907
 20 
0.873
 11 
0.945
 21 
0.873
 0 
LINE
 8 
0
 62 
 7 
 10 
0.913
 20 
0.911
 11 
0.907
 21 
0.918
 0 
LINE
 8 
0
 62 
 7 
 10 
0.907
 20 
0.918
 11 
0.945
 21 
0.918
 0 
LINE
 8 
0
 62 
 7 
 10 
0.945
 20 
0.911
 11 
0.945
 21 
0.924
 0 
LINE
 8 
0
 62 
 7 
 10 
0.907
 20 
0.767
 11 
0.907
 21 
0.786
 0 
LINE
 8 
0
 62 
 7 
 10 
0.907
 20 
0.786
 11 
0.913
 21 
0.792
 0 
LINE
 8 
0
 62 
 7 
 10 
0.913
 20 
0.792
 11 
0.939
 21 
0.792
 0 
LINE
 8 
0
 62 
 7 
 10 
0.939
 20 
0.792
 11 
0.945
 21 
0.786
 0 
LINE
 8 
0
 62 
 7 
 10 
0.945
 20 
0.786
 11 
0.945
 21 
0.767
 0 
LINE
 8 
0
 62 
 7 
 10 
0.907
 20 
0.773
 11 
0.945
 21 
0.773
 0 
LINE
 8 
0
 62 
 7 
 10 
0.939
 20 
0.805
 11 
0.913
 21 
0.805
 0 
LINE
 8 
0
 62 
 7 
 10 
0.913
 20 
0.805
 11 
0.907
 21 
0.811
 0 
LINE
 8 
0
 62 
 7 
 10 
0.907
 20 
0.811
 11 
0.907
 21 
0.824
 0 
LINE
 8 
0
 62 
 7 
 10 
0.907
 20 
0.824
 11 
0.913
 21 
0.83
 0 
LINE
 8 
0
 62 
 7 
 10 
0.913
 20 
0.83
 11 
0.939
 21 
0.83
 0 
LINE
 8 
0
 62 
 7 
 10 
0.939
 20 
0.83
 11 
0.945
 21 
0.824
 0 
LINE
 8 
0
 62 
 7 
 10 
0.945
 20 
0.824
 11 
0.945
 21 
0.811
 0 
LINE
 8 
0
 62 
 7 
 10 
0.945
 20 
0.811
 11 
0.939
 21 
0.805
 0 
LINE
 8 
0
 62 
 7 
 10 
0.939
 20 
0.805
 11 
0.913
 21 
0.83
 0 
LINE
 8 
0
 62 
 7 
 10 
0.55
 20 
0.95
 11 
0.55
 21 
0.75
 0 
LINE
 8 
0
 62 
 7 
 10 
0.55
 20 
0.75
 11 
1.275
 21 
0.75
 0 
LINE
 8 
0
 62 
 7 
 10 
1.275
 20 
0.75
 11 
1.275
 21 
0.95
 0 
LINE
 8 
0
 62 
 7 
 10 
0.404
 20 
0.999
 11 
0.404
 21 
0.974
 0 
LINE
 8 
0
 62 
 7 
 10 
0.404
 20 
0.974
 11 
0.379
 21 
0.974
 0 
LINE
 8 
0
 62 
 7 
 10 
0.379
 20 
0.974
 11 
0.379
 21 
0.999
 0 
LINE
 8 
0
 62 
 7 
 10 
0.379
 20 
0.999
 11 
0.404
 21 
0.999
 0 
LINE
 8 
0
 62 
 7 
 10 
0.517
 20 
0.777
 11 
0.517
 21 
0.752
 0 
LINE
 8 
0
 62 
 7 
 10 
0.517
 20 
0.752
 11 
0.492
 21 
0.752
 0 
LINE
 8 
0
 62 
 7 
 10 
0.492
 20 
0.752
 11 
0.492
 21 
0.777
 0 
LINE
 8 
0
 62 
 7 
 10 
0.492
 20 
0.777
 11 
0.517
 21 
0.777
 0 
LINE
 8 
0
 62 
 7 
 10 
0.225
 20 
0.9
 11 
0.244
 21 
0.9
 0 
LINE
 8 
0
 62 
 7 
 10 
0.244
 20 
0.9
 11 
0.25
 21 
0.894
 0 
LINE
 8 
0
 62 
 7 
 10 
0.25
 20 
0.894
 11 
0.25
 21 
0.868
 0 
LINE
 8 
0
 62 
 7 
 10 
0.25
 20 
0.868
 11 
0.244
 21 
0.862
 0 
LINE
 8 
0
 62 
 7 
 10 
0.244
 20 
0.862
 11 
0.225
 21 
0.862
 0 
LINE
 8 
0
 62 
 7 
 10 
0.231
 20 
0.9
 11 
0.231
 21 
0.862
 0 
LINE
 8 
0
 62 
 7 
 10 
0.269
 20 
0.894
 11 
0.276
 21 
0.9
 0 
LINE
 8 
0
 62 
 7 
 10 
0.276
 20 
0.9
 11 
0.276
 21 
0.862
 0 
LINE
 8 
0
 62 
 7 
 10 
0.269
 20 
0.862
 11 
0.282
 21 
0.862
 0 
CIRCLE
 8 
0
 62 
 7 
 10 
0.125
 20 
1.175
 40 
0.08
 0 
CIRCLE
 8 
0
 62 
 7 
 10 
0.125
 20 
1.175
 40 
0.062
 0 
ENDSEC
 0 
EOF
